<svg xmlns="http://www.w3.org/2000/svg" version="1.1" xmlns:xlink="http://www.w3.org/1999/xlink" xmlns:svgjs="http://svgjs.dev/svgjs" viewBox="0 0 800 800"><defs><linearGradient x1="50%" y1="0%" x2="50%" y2="100%" id="ccchaos-grad"><stop stop-color="rgb(217, 196, 119)" stop-opacity="1" offset="0%"></stop><stop stop-color="hsl(47, 56%, 90%)" stop-opacity="1" offset="100%"></stop></linearGradient></defs><g stroke-width="2" stroke="url(#ccchaos-grad)" fill="none" stroke-linecap="round"><path d="M395.74 126.09Q417 136.62 438.64 148.22 460.43 160.64 482.1 173.52 503.36 186.46 523.93 199.03 543.56 210.83 561.99 221.52 579.02 230.82 594.45 238.58 608.17 244.79 620.1 249.56 637.8 255.71 650.66 260.78 629.47 276.78 607.79 292.78 588.31 308.78 573.43 324.78 565 340.78 564.06 356.78 570.74 372.78 584.19 388.78 602.76 404.78 624.15 420.78 645.7 436.78 664.75 452.78 678.94 468.78 686.51 484.79 686.52 500.79 678.97 516.79 657.48 533.18 634.87 550.18 611.45 567.04 587.58 582.99 563.6 597.35 539.82 609.53 516.55 619.15 494.09 626.03 472.66 630.22 452.44 632.01 433.6 631.91 416.2 630.61 400.28 628.89 385.82 627.6 372.75 627.57 360.95 629.53 347.31 618.37 334.89 610.14 323.56 604.81 313.15 602.07 303.46 601.42 294.29 602.19 285.42 603.59 276.63 604.8 267.72 605.02 258.5 603.57 248.82 599.91 238.55 593.69 227.57 584.8 215.84 573.36 203.32 559.71 190.02 544.34 192.22 527.78 192.22 511.22 190.02 494.65 185.89 478.09 180.36 461.52 174.09 444.96 167.88 428.4 162.48 411.83 158.57 395.27 156.63 378.71 156.91 362.14 159.36 345.58 163.68 329.02 169.34 312.45 175.64 295.89 181.8 279.33 199.44 275.69 217.15 270.73 234.75 264.22 252.08 256.06 268.95 246.3 285.2 235.14 300.67 222.88 315.25 209.91 328.83 196.66 341.34 183.58 352.77 171.08 363.13 159.52 372.47 149.15 380.92 140.13 392.18 129.28 395.74 126.09" stroke-dasharray="77 61" transform="rotate(0, 400, 400)" opacity="0.05"></path><path d="M401.25 132.23Q422.12 142.53 443.19 153.87 464.22 166.01 484.97 178.62 505.16 191.32 524.57 203.72 542.94 215.43 560.08 226.11 575.81 235.49 589.98 243.42 602.5 249.83 613.34 254.82 629.35 261.18 641 266.03 620.22 281.7 599.42 297.38 581.04 313.05 567.26 328.72 559.7 344.4 559.25 360.07 565.96 375.74 579.05 391.41 596.97 407.09 617.61 422.76 638.52 438.43 657.25 454.1 671.59 469.77 679.84 485.45 681.03 501.12 675.03 516.79 654.68 533.03 633.17 549.59 610.79 565.76 587.83 580.87 564.62 594.29 541.45 605.54 518.63 614.31 496.42 620.48 475.05 624.14 454.73 625.61 435.61 625.38 417.8 624.08 401.36 622.47 386.3 621.33 372.58 621.41 360.13 623.39 347.75 612.49 336.47 604.37 326.14 598.98 316.59 596.07 299.11 596.1 282.15 598.21 273.49 598.62 264.46 597.59 254.9 594.57 244.72 589.2 233.83 581.31 222.18 570.96 209.76 558.39 196.6 544.01 198.41 527.79 198.05 511.58 195.56 495.36 191.23 479.14 185.58 462.93 179.26 446.71 173.04 430.49 167.63 414.28 163.68 398.06 161.65 381.84 161.78 365.63 164.07 349.41 168.23 333.19 173.77 316.97 180.05 300.76 186.33 284.54 203.64 280.59 221.06 275.27 238.44 268.4 255.6 259.95 272.38 250 288.62 238.76 304.17 226.55 318.89 213.74 332.69 200.74 345.47 187.97 357.2 175.82 367.88 164.61 377.52 154.57 386.22 145.83 397.66 135.32 401.25 132.23" stroke-dasharray="58 81" transform="rotate(2.5250000000000004, 400, 400)" opacity="0.07"></path><path d="M406.74 138.36Q427.09 148.43 447.46 159.51 467.64 171.37 487.38 183.7 506.45 196.16 524.65 208.37 541.77 219.97 557.62 230.63 572.08 240.09 585.04 248.16 596.44 254.78 606.26 260 620.73 266.62 631.32 271.39 611.05 286.74 591.16 302.08 573.89 317.42 561.17 332.77 554.44 348.11 554.44 363.46 561.18 378.8 573.91 394.15 591.18 409.49 611.07 424.84 631.35 440.18 649.73 455.53 664.16 470.88 673.02 486.22 675.31 501.57 670.78 516.91 651.57 532.88 631.17 548.91 609.84 564.34 587.84 578.57 565.46 591.05 542.98 601.39 520.69 609.34 498.83 614.84 477.64 618.02 457.33 619.19 438.04 618.84 419.92 617.57 403.05 616.07 387.45 615.07 373.14 615.26 360.06 617.25 348.87 606.62 338.65 598.59 329.24 593.16 320.46 590.1 304.05 589.72 287.81 591.62 279.35 592.18 270.45 591.51 260.99 589.07 250.88 584.49 240.06 577.57 228.49 568.28 216.16 556.8 203.12 543.44 204.54 527.58 203.82 511.71 201.05 495.85 196.53 479.98 190.77 464.12 184.41 448.25 178.18 432.39 172.77 416.52 168.78 400.66 166.67 384.8 166.67 368.93 168.78 353.07 172.76 337.2 178.17 321.34 184.41 305.47 190.76 289.61 207.73 285.31 224.84 279.62 241.96 272.41 258.93 263.69 275.59 253.58 291.79 242.3 307.39 230.16 322.23 217.53 336.23 204.8 349.27 192.36 361.31 180.57 372.32 169.71 382.3 160 391.3 151.54 403.08 141.36 406.74 138.36" stroke-dasharray="18 59" transform="rotate(5.050000000000001, 400, 400)" opacity="0.10"></path><path d="M412.1 144.5Q431.81 154.34 451.37 165.15 470.6 176.72 489.27 188.77 507.19 200.99 524.16 213 540.02 224.48 554.62 235.1 567.86 244.61 579.67 252.82 590 259.64 598.88 265.09 611.96 272.05 621.63 276.85 601.94 291.87 583 306.88 566.84 321.9 555.16 336.91 549.23 351.93 549.66 366.94 556.41 381.96 568.77 396.97 585.41 411.99 604.57 427 624.2 442.02 642.2 457.03 656.67 472.04 666.06 487.06 669.37 502.07 666.25 517.09 648.16 532.68 628.87 548.09 608.6 562.74 587.59 576.06 566.1 587.62 544.38 597.07 522.7 604.24 501.29 609.11 480.38 611.83 460.18 612.74 440.84 612.29 422.52 611.06 405.31 609.68 389.26 608.82 374.42 609.11 360.75 611.11 350.68 600.74 341.42 592.83 324.88 585.11 309.26 582.96 293.4 584.79 276.48 585.33 267.08 583.41 257.03 579.56 246.25 573.55 234.74 565.29 222.51 554.89 209.59 542.59 210.61 527.09 209.53 511.58 206.48 496.08 201.78 480.58 195.92 465.07 189.55 449.57 183.32 434.07 177.91 418.56 173.9 403.06 171.7 387.56 171.56 372.05 173.49 356.55 177.28 341.05 182.54 325.54 188.69 310.04 195.09 294.54 211.7 289.87 228.48 283.8 245.32 276.26 262.07 267.3 278.59 257.05 294.72 245.76 310.32 233.72 325.26 221.3 339.43 208.86 352.72 196.76 365.06 185.32 376.4 174.82 386.74 165.43 396.1 157.26 408.31 147.41 412.1 144.5" stroke-dasharray="32 1" transform="rotate(7.574999999999999, 400, 400)" opacity="0.12"></path><path d="M417.23 150.64Q436.18 160.24 454.85 170.78 473.05 182.06 490.61 193.83 507.34 205.79 523.09 217.59 537.71 228.93 551.09 239.5 563.16 249.05 573.87 257.38 583.22 264.39 591.23 270.06 603.08 277.42 611.96 282.36 592.93 297.04 574.98 311.73 559.91 326.41 549.24 341.1 544.06 355.78 544.88 370.46 551.63 385.15 563.63 399.83 579.65 414.51 598.08 429.2 617.06 443.88 634.67 458.56 649.13 473.24 658.97 487.93 663.21 502.61 661.41 517.29 644.43 532.41 626.24 547.14 607.04 560.95 587.05 573.37 566.48 584.01 545.59 592.6 524.59 599.02 503.72 603.3 483.2 605.61 463.21 606.29 443.94 605.76 425.52 604.57 408.08 603.31 391.68 602.58 376.38 602.96 362.2 604.97 353.13 594.86 344.74 587.07 329.45 579.17 314.69 576.63 299.22 578.28 282.49 579.07 273.14 577.62 263.12 574.44 252.39 569.28 240.94 562.01 228.8 552.67 215.99 541.44 216.6 526.3 215.17 511.17 211.86 496.03 206.99 480.9 201.05 465.76 194.66 450.63 188.45 435.49 183.05 420.36 179.02 405.22 176.74 390.08 176.46 374.95 178.21 359.81 181.8 344.68 186.88 329.54 192.93 314.41 199.34 299.27 215.56 294.21 232 287.77 248.53 279.93 265.03 270.75 281.37 260.4 297.39 249.13 312.97 237.23 327.97 225.04 342.27 212.9 355.78 201.14 368.4 190.07 380.09 179.92 390.8 170.86 400.54 162.98 413.28 153.45 417.23 150.64" stroke-dasharray="59 29" transform="rotate(10.100000000000001, 400, 400)" opacity="0.15"></path><path d="M422.04 156.78Q440.12 166.14 457.82 176.41 474.95 187.4 491.35 198.88 506.89 210.57 521.41 222.16 534.82 233.34 547.04 243.84 558 253.41 567.69 261.84 582.78 274.32 594.53 283.17 598.76 285.84 602.31 287.91 584.02 302.25 567.07 316.6 553.08 330.95 543.4 345.3 538.93 359.64 540.12 373.99 546.85 388.34 558.48 402.68 573.89 417.03 591.6 431.38 609.93 445.72 627.12 460.07 641.51 474.42 651.75 488.77 656.83 503.12 656.29 517.46 640.38 532.02 623.29 546.01 605.16 558.96 586.2 570.46 566.6 580.2 546.57 587.96 526.32 593.68 506.08 597.41 486.03 599.35 466.37 599.82 447.26 599.23 428.87 598.09 411.3 596.94 394.65 596.35 378.99 596.82 364.36 598.84 356.2 588.99 348.57 581.32 334.33 573.25 320.28 570.34 305.08 571.78 288.48 572.74 279.15 571.7 269.15 569.12 258.45 564.75 247.06 558.42 235 550.11 222.33 539.95 222.52 525.19 220.74 510.43 217.17 495.67 212.15 480.91 206.15 466.15 199.75 451.39 193.57 436.63 188.2 421.88 184.14 407.12 181.79 392.36 181.38 377.6 182.93 362.84 186.31 348.08 191.19 333.33 197.11 318.57 203.49 303.81 219.31 298.36 235.38 291.56 251.58 283.43 267.81 274.07 283.93 263.66 299.81 252.43 315.33 240.69 330.35 228.75 344.76 216.93 358.45 205.53 371.33 194.83 383.34 185.04 394.42 176.3 404.55 168.69 417.89 159.5 422.04 156.78" stroke-dasharray="43 68" transform="rotate(12.625, 400, 400)" opacity="0.17"></path><path d="M426.43 162.93Q443.57 172.05 460.23 182.04 476.24 192.74 491.48 203.93 505.81 215.34 519.14 226.7 531.38 237.72 542.48 248.13 552.4 257.69 561.14 266.21 574.75 279.09 585.41 288.42 589.33 291.29 592.71 293.45 575.22 307.46 559.29 321.47 546.37 335.48 537.63 349.48 533.85 363.49 535.38 377.5 542.08 391.51 553.34 405.51 568.15 419.52 585.16 433.53 602.83 447.53 619.57 461.54 633.86 475.55 644.4 489.55 650.25 503.56 650.87 517.56 636.02 531.48 620 544.68 602.95 556.75 585.03 567.33 566.41 576.19 547.29 583.16 527.86 588.22 508.31 591.44 488.83 593.04 469.59 593.32 450.76 592.69 432.49 591.61 414.91 590.59 398.12 590.11 382.2 590.67 367.2 592.69 359.83 583.11 352.87 575.57 339.49 567.35 325.98 564.09 310.96 565.28 294.42 566.35 285.09 565.65 275.1 563.62 264.43 559.97 253.09 554.52 241.13 547.22 228.57 538.11 228.35 523.73 226.24 509.36 222.43 494.99 217.27 480.61 211.22 466.24 204.83 451.87 198.69 437.49 193.34 423.12 189.27 408.74 186.85 394.37 186.3 380 187.66 365.62 190.82 351.25 195.49 336.87 201.24 322.5 207.56 308.13 222.97 302.28 238.64 295.15 254.49 286.77 270.41 277.26 286.28 266.81 301.99 255.67 317.4 244.12 332.4 232.45 346.87 220.96 360.71 209.93 373.82 199.6 386.12 190.16 397.56 181.75 408.09 174.43 422.07 165.55 426.43 162.93" stroke-dasharray="29 68" transform="rotate(15.149999999999999, 400, 400)" opacity="0.19"></path><path d="M430.31 169.07Q446.45 177.95 462.02 187.67 476.89 198.07 490.96 208.96 504.12 220.09 516.29 231.2 527.41 242.04 537.45 252.34 546.39 261.89 554.27 270.47 566.55 283.72 576.27 293.54 579.95 296.63 583.2 298.96 566.55 312.62 551.66 326.28 539.78 339.94 531.94 353.61 528.81 367.27 530.64 380.93 537.29 394.6 548.19 408.26 562.41 421.92 578.72 435.58 595.75 449.25 612.02 462.91 626.16 476.57 636.95 490.24 643.47 503.9 645.16 517.57 631.33 530.78 616.36 543.14 600.37 554.31 583.5 564 565.89 572 547.71 578.22 529.14 582.65 510.35 585.41 491.51 586.7 472.78 586.83 454.34 586.18 436.31 585.16 418.83 584.25 402 583.9 385.93 584.54 370.66 586.55 363.98 577.23 357.55 569.83 344.87 561.49 331.75 557.88 316.82 558.8 300.28 559.92 290.94 559.51 280.95 557.96 270.3 554.97 259.03 550.34 247.15 543.99 234.73 535.91 234.09 521.93 231.66 507.94 227.62 493.96 222.34 479.98 216.26 466 209.89 452.01 203.79 438.03 198.48 424.05 194.41 410.06 191.92 396.08 191.23 382.1 192.41 368.12 195.34 354.13 199.78 340.15 205.34 326.17 211.56 312.19 226.53 305.97 241.8 298.52 257.27 289.92 272.85 280.3 288.44 269.86 303.92 258.84 319.19 247.5 334.12 236.12 348.61 224.97 362.55 214.32 375.85 204.36 388.41 195.29 400.18 187.2 411.1 180.15 425.73 171.6 430.31 169.07" stroke-dasharray="35 1" transform="rotate(17.674999999999997, 400, 400)" opacity="0.22"></path><path d="M433.61 175.21Q448.69 183.84 463.15 193.29 476.89 203.39 489.79 213.97 501.8 224.81 512.86 235.68 522.92 246.32 531.97 256.5 540.02 266 547.1 274.63 558.21 288.23 567.12 298.53 570.6 301.88 573.76 304.4 558.01 317.72 544.15 331.03 533.3 344.34 526.33 357.66 523.8 370.97 525.92 384.28 532.52 397.59 543.05 410.91 556.69 424.22 572.32 437.53 588.69 450.84 604.48 464.16 618.42 477.47 629.39 490.78 636.5 504.09 639.18 517.4 626.33 529.85 612.39 541.36 597.44 551.63 581.61 560.44 565.01 567.62 547.81 573.13 530.14 576.98 512.16 579.32 494.03 580.34 475.9 580.34 457.93 579.67 440.24 578.73 422.97 577.93 406.23 577.69 390.11 578.4 374.68 580.41 368.56 571.36 362.58 564.1 350.4 555.66 337.54 551.73 322.61 552.35 306.03 553.44 296.67 553.28 286.68 552.14 276.06 549.74 264.85 545.87 253.07 540.42 240.78 533.33 239.75 519.75 237 506.17 232.76 492.59 227.37 479 221.27 465.42 214.94 451.84 208.9 438.25 203.63 424.67 199.55 411.09 197 397.5 196.18 383.92 197.16 370.34 199.86 356.76 204.05 343.17 209.41 329.59 215.5 316 230.02 309.42 244.84 301.69 259.91 292.91 275.13 283.22 290.4 272.82 305.63 261.95 320.71 250.84 335.53 239.78 349.99 228.99 363.98 218.71 377.41 209.14 390.19 200.42 402.25 192.65 413.54 185.88 428.8 177.65 433.61 175.21" stroke-dasharray="88 74" transform="rotate(20.200000000000003, 400, 400)" opacity="0.24"></path><path d="M436.27 181.34Q450.27 189.74 463.61 198.9 476.2 208.7 487.98 218.98 498.89 229.53 508.88 240.13 517.95 250.56 526.08 260.6 533.31 270.03 539.68 278.69 549.76 292.6 558 303.37 561.34 306.99 564.45 309.74 549.63 322.7 536.8 335.66 526.94 348.62 520.8 361.57 518.84 374.53 521.21 387.49 527.73 400.44 537.91 413.4 550.97 426.36 565.93 439.32 581.65 452.27 596.94 465.23 610.65 478.19 621.73 491.15 629.35 504.11 632.92 517.06 621.02 528.7 608.07 539.33 594.14 548.71 579.34 556.66 563.77 563.06 547.54 567.9 530.81 571.22 513.69 573.17 496.33 573.95 478.88 573.84 461.47 573.17 444.22 572.31 427.27 571.62 410.71 571.5 394.66 572.28 379.19 574.27 367.81 559.22 356.17 549.13 343.07 546.09 328.6 545.81 320.43 546.44 311.66 546.95 302.27 546.97 292.28 546.18 281.69 544.31 270.54 541.14 258.87 536.52 246.73 530.38 245.3 517.21 242.26 504.03 237.83 490.85 232.36 477.67 226.24 464.49 219.96 451.32 213.99 438.14 208.77 424.96 204.7 411.78 202.09 398.61 201.15 385.43 201.93 372.25 204.39 359.07 208.32 345.9 213.45 332.72 219.37 319.54 233.43 312.62 247.8 304.65 262.44 295.72 277.26 286.01 292.18 275.69 307.12 265 321.96 254.16 336.62 243.42 351 233 364.99 223.11 378.5 213.92 391.45 205.56 403.77 198.11 415.37 191.61 431.25 183.7 436.27 181.34" stroke-dasharray="88 27" transform="rotate(22.725, 400, 400)" opacity="0.26"></path><path d="M438.25 187.48Q451.15 195.63 463.37 204.52 474.85 214.02 485.53 223.98 495.38 234.23 504.38 244.56 512.52 254.77 519.82 264.64 526.31 273.99 532.03 282.65 541.23 296.83 548.91 308.06 552.15 311.95 555.26 314.97 541.38 327.56 529.58 340.16 520.69 352.76 515.34 365.35 513.91 377.95 516.51 390.54 522.95 403.14 532.77 415.73 545.27 428.33 559.57 440.92 574.64 453.52 589.42 466.11 602.85 478.7 613.98 491.3 622.02 503.89 626.39 516.49 615.4 527.29 603.41 537.03 590.49 545.53 576.69 552.65 562.13 558.31 546.9 562.52 531.12 565.36 514.9 566.96 498.37 567.53 481.66 567.34 464.88 566.68 448.17 565.9 431.63 565.33 415.37 565.31 399.49 566.15 384.08 568.13 373.24 553.44 361.87 543.39 348.75 540.02 334.19 539.38 325.95 539.92 317.13 540.43 307.72 540.59 297.73 540.1 287.18 538.69 276.1 536.13 264.55 532.29 252.56 527.05 250.76 514.28 247.44 501.52 242.84 488.76 237.3 475.99 231.2 463.23 224.97 450.46 219.07 437.7 213.91 424.93 209.86 412.17 207.2 399.4 206.13 386.64 206.72 373.87 208.92 361.11 212.6 348.34 217.47 335.58 223.19 322.81 236.77 315.6 250.67 307.42 264.86 298.4 279.26 288.69 293.8 278.49 308.39 268.01 322.96 257.47 337.41 247.07 351.65 237.03 365.59 227.53 379.13 218.72 392.2 210.71 404.7 203.58 416.59 197.35 433.01 189.75 438.25 187.48" stroke-dasharray="19 87" transform="rotate(25.25, 400, 400)" opacity="0.29"></path><path d="M439.49 193.62Q451.3 201.52 462.42 210.13 472.82 219.32 482.46 228.97 491.32 238.91 499.39 248.96 506.69 258.93 513.23 268.62 519.05 277.87 524.22 286.5 532.67 300.91 539.91 312.56 543.1 316.73 546.22 320.03 533.31 332.26 522.52 344.48 514.56 356.71 509.96 368.94 509.03 381.16 511.82 393.39 518.16 405.62 527.62 417.84 539.57 430.07 553.22 442.3 567.65 454.52 581.9 466.75 595.03 478.98 606.15 491.21 614.54 503.43 619.62 515.66 609.49 525.6 598.42 534.47 586.46 542.11 573.66 548.43 560.09 553.4 545.86 557.03 531.04 559.41 515.75 560.7 500.08 561.1 484.16 560.84 468.1 560.21 452 559.51 435.97 559.05 420.11 559.13 404.52 560.03 389.29 561.99 378.78 547.68 367.53 537.68 354.31 534 339.6 533.01 331.3 533.43 322.43 533.92 312.99 534.17 303.01 533.92 292.51 532.9 281.52 530.9 270.09 527.75 258.27 523.35 256.11 511 252.53 498.65 247.79 486.31 242.19 473.96 236.12 461.61 229.96 449.26 224.15 436.92 219.05 424.57 215.02 412.22 212.32 399.87 211.12 387.53 211.52 375.18 213.48 362.83 216.88 350.49 221.48 338.14 226.98 325.79 240.06 318.32 253.47 309.98 267.19 300.91 281.14 291.26 295.26 281.22 309.49 270.98 323.74 260.74 337.93 250.71 351.98 241.06 365.8 231.95 379.31 223.52 392.42 215.87 405.07 209.05 417.17 203.09 434.08 195.8 439.49 193.62" stroke-dasharray="81 40" transform="rotate(27.775000000000002, 400, 400)" opacity="0.31"></path><path d="M439.99 199.76Q450.71 207.41 460.78 215.73 470.15 224.62 478.8 233.95 486.74 243.57 493.96 253.33 500.48 263.05 506.35 272.55 511.59 281.67 516.28 290.25 524.11 304.83 531 316.88 534.16 321.33 537.33 324.92 525.4 336.77 515.6 348.62 508.54 360.47 504.65 372.33 504.17 384.18 507.15 396.03 513.38 407.88 522.48 419.73 533.89 431.58 546.9 443.43 560.69 455.29 574.4 467.14 587.19 478.99 598.25 490.84 606.9 502.69 612.59 514.54 603.29 523.61 593.1 531.61 582.07 538.42 570.23 543.99 557.65 548.31 544.4 551.41 530.55 553.39 516.2 554.41 501.43 554.65 486.35 554.35 471.05 553.75 455.64 553.14 440.2 552.79 424.84 552.96 409.64 553.91 394.69 555.85 384.35 541.92 373.09 532 359.71 528.03 344.82 526.69 336.45 526.98 327.53 527.41 318.08 527.72 308.12 527.65 297.67 526.95 286.78 525.43 275.49 522.91 263.85 519.28 261.35 507.35 257.54 495.43 252.67 483.51 247.05 471.58 241.01 459.66 234.94 447.74 229.22 435.82 224.2 423.89 220.19 411.97 217.45 400.05 216.14 388.12 216.35 376.2 218.06 364.27 221.17 352.35 225.48 340.43 230.73 328.5 243.3 320.81 256.21 312.36 269.43 303.28 282.91 293.73 296.59 283.88 310.4 273.91 324.29 264.01 338.18 254.35 351.99 245.09 365.64 236.39 379.05 228.34 392.15 221.04 404.86 214.53 417.11 208.84 434.41 201.85 439.99 199.76" stroke-dasharray="65 34" transform="rotate(30.299999999999997, 400, 400)" opacity="0.33"></path><path d="M439.72 205.9Q449.4 213.3 458.45 221.34 466.85 229.92 474.59 238.93 481.68 248.23 488.13 257.69 493.96 267.14 499.22 276.43 503.96 285.4 508.24 293.9 515.57 308.61 522.23 320.99 521.53 333.38 508.84 352.53 502.63 364 499.41 375.47 499.35 386.94 502.47 398.41 508.59 409.88 517.34 421.35 528.22 432.82 540.59 444.29 553.75 455.76 566.92 467.23 579.34 478.7 590.29 490.18 599.13 501.65 605.34 513.12 596.81 521.32 587.47 528.47 577.32 534.49 566.41 539.35 554.79 543.05 542.5 545.67 529.63 547.29 516.22 548.07 502.38 548.19 488.17 547.86 473.69 547.31 459.02 546.79 444.25 546.54 429.47 546.8 414.76 547.79 400.2 549.72 389.87 536.17 378.49 526.34 364.91 522.11 349.82 520.42 341.37 520.57 332.41 520.92 322.96 521.24 313.03 521.3 302.66 520.88 291.88 519.77 280.75 517.81 269.3 514.86 266.48 503.37 262.47 491.87 257.5 480.37 251.86 468.88 245.87 457.38 239.9 445.88 234.28 434.39 229.34 422.89 225.36 411.4 222.59 399.9 221.17 388.4 221.2 376.91 222.66 365.41 225.48 353.92 229.49 342.42 234.46 330.92 246.51 323.07 258.91 314.56 271.61 305.53 284.59 296.12 297.8 286.49 311.17 276.82 324.66 267.27 338.19 258 351.7 249.15 365.12 240.84 378.38 233.17 391.39 226.22 404.1 220.02 416.43 214.59 434.02 207.9 439.72 205.9" stroke-dasharray="79 63" transform="rotate(32.825, 400, 400)" opacity="0.36"></path><path d="M438.7 212.04Q447.38 219.19 455.48 226.94 462.97 235.21 469.87 243.89 476.19 252.88 481.95 262.03 487.17 271.2 491.92 280.26 496.22 289.06 500.16 297.46 507.1 312.23 513.59 324.9 513.45 337.5 502.23 356.21 496.84 367.29 494.24 378.37 494.57 389.45 497.82 400.54 503.8 411.62 512.2 422.7 522.56 433.78 534.32 444.86 546.85 455.95 559.46 467.03 571.49 478.11 582.27 489.19 591.22 500.27 597.87 511.35 590.07 518.7 581.52 525.03 572.22 530.3 562.21 534.5 551.51 537.65 540.17 539.83 528.25 541.13 515.8 541.71 502.88 541.73 489.57 541.39 475.95 540.89 462.08 540.45 448.04 540.3 433.91 540.65 419.78 541.68 405.7 543.58 395.26 530.43 383.68 520.72 369.85 516.24 354.55 514.22 346.05 514.21 337.06 514.46 327.62 514.77 317.74 514.91 307.46 514.69 296.82 513.92 285.85 512.44 274.62 510.11 271.5 499.05 267.31 487.98 262.26 476.92 256.62 465.86 250.71 454.79 244.84 443.73 239.34 432.66 234.48 421.6 230.55 410.54 227.74 399.47 226.22 388.41 226.07 377.34 227.29 366.28 229.81 355.21 233.51 344.15 238.18 333.08 249.7 325.12 261.57 316.6 273.75 307.65 286.21 298.42 298.91 289.06 311.81 279.71 324.86 270.53 337.99 261.66 351.16 253.21 364.29 245.3 377.32 238.02 390.18 231.41 402.82 225.52 415.15 220.34 432.92 213.95 438.7 212.04" stroke-dasharray="100 5" transform="rotate(35.349999999999994, 400, 400)" opacity="0.38"></path><path d="M436.94 218.18Q444.69 225.08 451.9 232.54 458.56 240.5 464.7 248.85 470.33 257.51 475.47 266.34 480.17 275.23 484.47 284.04 488.42 292.64 492.08 300.91 498.73 315.69 505.12 328.59 505.56 341.36 495.78 359.61 491.16 370.3 489.14 380.99 489.82 391.68 493.16 402.37 499 413.05 507.05 423.74 516.9 434.43 528.06 445.12 539.97 455.81 552.02 466.5 563.63 477.19 574.2 487.87 583.15 507.16 575.28 521.31 566.78 525.88 557.62 529.46 547.82 532.11 537.4 533.89 526.41 534.92 514.9 535.33 502.92 535.27 490.52 534.93 477.77 534.49 464.74 534.14 451.49 534.08 438.08 534.5 424.6 535.57 411.09 537.44 400.44 524.7 388.59 515.12 374.5 510.43 359.01 508.08 350.45 507.91 341.46 508.05 332.04 508.3 322.23 508.49 312.06 508.42 301.57 507.93 290.8 506.85 279.79 505.06 276.41 494.43 272.06 483.8 266.95 473.17 261.35 462.54 255.52 451.91 249.77 441.28 244.38 430.65 239.62 420.02 235.74 409.39 232.91 398.75 231.3 388.12 230.97 377.49 231.95 366.86 234.18 356.23 237.55 345.6 241.9 334.97 252.89 326.95 264.21 318.48 275.85 309.67 287.77 300.66 299.95 291.59 312.35 282.59 324.92 273.79 337.61 265.33 350.38 257.29 363.16 249.78 375.91 242.87 388.55 236.61 401.04 231.02 413.3 226.1 431.11 220.01 436.94 218.18" stroke-dasharray="95 96" transform="rotate(37.875, 400, 400)" opacity="0.41"></path><path d="M434.48 224.32Q441.36 230.97 447.75 238.14 453.67 245.78 459.13 253.81 464.15 262.13 468.76 270.64 473.01 279.23 476.94 287.78 483.95 304.1 490.49 319.29 496.89 331.73 503.64 342.18 495.58 352.47 489.47 362.76 485.58 373.04 484.1 383.33 485.1 393.62 488.52 403.91 494.21 414.19 501.91 424.48 511.26 434.77 521.83 445.06 533.12 455.34 544.61 465.63 555.78 475.92 566.09 486.21 575.47 504.49 568.75 517.3 561.02 521.21 552.66 524.23 543.71 526.42 534.18 527.86 524.11 528.65 513.52 528.92 502.46 528.81 490.98 528.48 479.13 528.1 466.96 527.84 454.53 527.88 441.9 528.37 429.13 529.47 416.28 531.3 405.33 518.97 393.17 509.55 378.82 504.66 363.16 502 354.57 501.67 345.59 501.68 336.22 501.86 326.5 502.04 316.46 502.08 306.14 501.8 295.58 501.06 284.81 499.73 281.2 489.53 276.73 479.34 271.59 469.15 266.03 458.95 260.31 448.76 254.68 438.57 249.42 428.37 244.77 418.18 240.93 407.99 238.1 397.79 236.39 387.6 235.9 377.4 236.64 367.21 238.57 357.02 241.62 346.82 245.63 336.63 256.07 328.61 266.85 320.23 277.93 311.6 289.3 302.85 300.94 294.1 312.8 285.47 324.86 277.07 337.08 269.02 349.4 261.4 361.79 254.29 374.19 247.75 386.54 241.83 398.8 236.53 410.92 231.86 428.65 226.06 434.48 224.32" stroke-dasharray="80 57" transform="rotate(40.400000000000006, 400, 400)" opacity="0.43"></path><path d="M431.36 230.45Q437.45 236.85 443.11 243.74 448.36 251.06 453.22 258.76 457.71 266.74 461.88 274.92 465.75 283.2 469.37 291.47 476.01 307.41 482.37 322.41 488.84 335.02 495.74 345.83 488.6 355.71 483.32 365.6 480.12 375.48 479.13 385.36 480.4 395.25 483.88 405.13 489.42 415.01 496.77 424.9 505.63 434.78 515.62 444.66 526.3 454.54 537.23 464.43 547.94 474.31 557.96 484.19 567.64 501.49 561.96 513.03 547.07 518.48 530.53 521.76 521.33 522.35 511.64 522.5 501.49 522.35 490.92 522.05 479.97 521.74 468.68 521.57 457.11 521.69 445.29 522.25 433.29 523.36 421.15 525.16 409.86 513.26 397.36 504.01 382.79 498.95 366.98 496.01 358.39 495.51 349.43 495.37 340.14 495.46 330.54 495.61 320.66 495.7 310.53 495.57 300.2 495.1 289.69 494.15 285.88 484.4 281.31 474.64 276.17 464.88 270.67 455.13 265.06 445.37 259.58 435.61 254.46 425.86 249.91 416.1 246.14 406.34 243.3 396.58 241.51 386.83 240.86 377.07 241.36 367.31 243.01 357.56 245.72 347.8 249.38 338.04 259.29 330.08 269.5 321.85 280.02 313.45 290.83 304.99 301.9 296.59 313.21 288.35 324.73 280.36 336.43 272.73 348.27 265.52 360.21 258.81 372.2 252.65 384.2 247.05 396.17 242.05 408.05 237.63 425.58 232.12 431.36 230.45" stroke-dasharray="34 75" transform="rotate(42.925, 400, 400)" opacity="0.45"></path><path d="M427.64 236.6Q437.86 249.54 447.04 263.71 454.77 279.25 461.82 295.12 468.2 310.64 474.44 325.4 481 338.1 488.07 349.21 481.82 358.68 477.32 368.15 474.76 377.62 474.22 387.09 475.74 396.56 479.25 406.04 484.61 415.51 491.62 424.98 500 434.45 509.42 443.92 519.51 453.39 529.87 462.87 540.1 472.34 549.8 481.81 554.12 504.68 541.69 513.28 526.2 515.36 509.26 516.07 500 515.91 490.32 515.64 480.26 515.39 469.87 515.31 459.16 515.51 448.19 516.12 437 517.26 425.63 519.01 413.96 507.54 401.14 498.49 386.36 493.29 370.46 490.08 361.89 489.42 352.99 489.14 343.8 489.1 334.34 489.2 324.64 489.3 314.73 489.27 297.55 484.01 285.8 469.72 280.68 460.4 275.27 451.08 269.79 441.76 264.46 432.44 259.48 423.12 255.05 413.8 251.35 404.48 248.51 395.17 246.65 385.85 245.85 376.53 246.13 367.21 247.49 357.89 249.87 348.57 253.17 339.26 262.53 331.41 272.18 323.38 282.13 315.24 292.36 307.11 302.85 299.08 313.59 291.24 324.54 283.68 335.7 276.47 347.01 269.68 358.45 263.37 369.99 257.56 381.58 252.3 393.18 247.58 404.76 243.41 421.95 238.18 427.64 236.6" stroke-dasharray="10 90" transform="rotate(45.45, 400, 400)" opacity="0.48"></path><path d="M423.4 242.74Q432.6 254.93 440.67 268.65 447.83 283.45 454.34 298.75 460.53 313.9 466.72 328.24 473.3 341.2 480.62 352.29 471.47 370.41 469.37 388.52 474.63 406.63 486.48 424.74 503.26 442.85 522.55 460.97 541.63 479.08 557.77 497.19 547.64 503.66 535.7 507.58 521.93 509.35 506.38 509.64 489.17 509.25 470.48 509.07 450.53 510.01 429.61 512.87 417.76 501.46 404.45 492.99 389.69 487.37 373.58 484.23 356.26 482.98 337.91 482.82 318.74 482.91 299.01 482.38 290.22 464.62 279.83 446.86 269.33 429.1 260.2 411.33 253.74 393.57 250.88 375.81 252.02 358.05 257 340.29 274.9 324.82 293.92 309.22 313.97 294.16 334.92 280.24 356.58 267.94 378.74 257.56 401.11 249.19 423.4 242.74 423.4 242.74 423.4 242.74" stroke-dasharray="95 98" transform="rotate(47.974999999999994, 400, 400)" opacity="0.50"></path><path d="M418.71 248.88Q426.89 260.52 434.19 273.59 440.8 287.69 446.99 302.33 453.04 316.94 459.25 330.95 465.94 343.81 473.42 355.07 465.77 372.35 464.58 389.62 470 406.9 481.34 424.17 497.11 441.45 515.27 458.73 533.46 476 549.31 493.28 540.16 498.62 529.41 501.75 517.02 503.08 503.02 503.22 487.46 502.89 470.49 502.86 452.27 503.92 433.03 506.74 420.82 495.8 407.26 487.53 392.4 481.85 376.34 478.47 359.22 476.91 341.23 476.52 322.57 476.55 303.44 476.27 294.55 459.38 284.36 442.49 274.18 425.6 265.34 408.71 258.98 391.82 255.94 374.93 256.61 358.04 260.9 341.15 277.69 326.2 295.54 311.32 314.39 297.1 334.14 284.05 354.65 272.54 375.73 262.83 397.17 254.97 418.71 248.88 418.71 248.88 418.71 248.88" stroke-dasharray="38 22" transform="rotate(50.5, 400, 400)" opacity="0.53"></path><path d="M413.67 255.02Q420.99 266.11 427.65 278.53 433.85 291.93 439.81 305.89 445.78 319.93 452.04 333.53 458.85 346.22 466.46 357.57 460.22 374 459.85 390.43 465.39 406.86 476.2 423.3 490.99 439.73 508.02 456.16 525.29 472.59 540.75 489.02 532.48 493.35 522.83 495.8 511.73 496.77 499.17 496.81 485.2 496.55 469.89 496.67 453.38 497.83 435.82 500.6 423.3 490.15 409.56 482.09 394.66 476.38 378.72 472.8 361.88 470.94 344.31 470.28 326.2 470.2 307.73 470.05 298.81 454.03 288.85 438.01 279.02 422 270.48 405.98 264.25 389.96 261.05 373.94 261.26 357.92 264.86 341.9 280.55 327.55 297.23 313.44 314.87 300.08 333.39 287.89 352.69 277.17 372.63 268.11 393.02 260.76 413.67 255.02 413.67 255.02 413.67 255.02" stroke-dasharray="8 62" transform="rotate(53.025000000000006, 400, 400)" opacity="0.55"></path><path d="M408.36 261.16Q414.99 271.7 421.15 283.46 427.03 296.16 432.83 309.43 438.78 322.86 445.11 336 452.02 348.43 459.75 359.77 454.81 375.35 455.17 390.94 460.78 406.52 471.06 422.11 484.89 437.69 500.82 453.28 517.13 468.86 532.1 484.44 524.64 487.88 515.99 489.75 506.07 490.42 494.87 490.41 482.38 490.24 468.67 490.5 453.81 491.75 437.92 494.46 425.17 484.5 411.32 476.67 396.47 470.97 380.73 467.2 364.24 465.07 347.16 464.13 329.65 463.89 311.88 463.78 302.99 448.63 293.3 433.47 283.84 418.32 275.62 403.16 269.52 388.01 266.19 372.85 265.98 357.69 268.91 342.54 283.5 328.87 299.02 315.59 315.44 303.11 332.71 291.77 350.77 281.83 369.49 273.41 388.74 266.55 408.36 261.16 408.36 261.16 408.36 261.16" stroke-dasharray="58 44" transform="rotate(55.550000000000004, 400, 400)" opacity="0.57"></path><path d="M402.9 267.3Q408.97 277.29 414.75 288.39 420.41 300.38 426.12 312.94 432.08 325.73 438.47 338.36 445.48 350.47 453.28 361.7 449.54 376.43 450.54 391.16 456.18 405.89 465.91 420.62 478.81 435.36 493.64 450.09 508.99 464.82 523.38 479.55 508.37 483.15 490.12 484.03 479.03 483.96 466.82 484.36 453.56 485.68 439.31 488.32 426.39 478.85 412.53 471.28 397.82 465.61 382.37 461.7 366.31 459.31 349.78 458.09 332.92 457.63 315.89 457.49 307.09 443.19 297.71 428.89 288.65 414.6 280.76 400.3 274.82 386.01 271.37 371.71 270.76 357.42 273.05 343.12 286.56 330.21 300.93 317.78 316.13 306.19 332.15 295.71 348.92 286.52 366.38 278.73 384.42 272.35 402.9 267.3 402.9 267.3 402.9 267.3" stroke-dasharray="100 88" transform="rotate(58.074999999999996, 400, 400)" opacity="0.60"></path><path d="M397.39 273.44Q403.03 282.87 408.53 293.33 414.04 304.6 419.71 316.44 425.69 328.55 432.15 340.62 439.22 352.33 447.06 363.36 444.42 377.24 445.96 391.12 451.57 405 460.77 418.88 472.76 432.75 486.52 446.63 499.25 473.09 484.97 477.68 475.17 477.72 464.37 478.24 452.62 479.61 439.95 482.18 426.97 473.21 413.2 465.92 398.72 460.31 383.64 456.29 368.08 453.67 352.17 452.18 336.02 451.48 319.76 451.22 311.13 437.78 302.1 424.33 293.45 410.89 285.91 397.44 280.13 384 276.6 370.55 275.63 357.11 277.29 343.67 289.75 331.56 302.98 320.03 316.97 309.33 331.73 299.69 347.22 291.24 363.37 284.06 380.13 278.16 397.39 273.44 397.39 273.44 397.39 273.44" stroke-dasharray="52 12" transform="rotate(60.599999999999994, 400, 400)" opacity="0.62"></path><path d="M391.92 279.57Q397.24 288.45 402.55 298.26 407.97 308.82 413.63 319.93 419.64 331.35 426.15 342.81 433.26 354.04 441.08 364.79 439.42 377.81 441.43 390.83 446.98 403.86 455.62 416.88 466.73 429.9 479.44 442.93 481.35 469.4 461.33 472.14 450.99 473.56 439.83 476.04 426.9 467.57 413.32 460.58 399.18 455.06 384.56 450.97 369.58 448.15 354.34 446.39 338.94 445.44 323.5 445.01 315.09 432.41 306.45 419.81 298.23 407.21 291.05 394.61 285.46 382.02 281.87 369.42 280.57 356.82 281.65 344.22 293.07 332.98 305.18 322.35 317.99 312.54 331.5 303.72 345.69 296 360.53 289.41 383.94 281.77 391.92 279.57" stroke-dasharray="93 4" transform="rotate(63.125, 400, 400)" opacity="0.64"></path><path d="M386.6 285.71Q391.71 294.04 396.89 303.19 402.26 313.04 407.91 323.41 413.95 334.11 420.48 344.92 427.58 355.62 435.35 365.98 434.55 378.15 436.95 390.32 442.38 402.49 450.48 414.66 460.72 426.83 472.41 439 475.2 463.37 457.73 466.06 448.71 467.51 438.95 469.9 426.2 461.94 412.92 455.25 399.21 449.87 385.14 445.73 370.81 442.75 356.3 440.75 341.71 439.55 327.12 438.92 319 427.15 310.78 415.39 303 403.62 296.19 391.86 290.8 380.09 287.19 368.33 285.6 356.57 286.13 344.81 296.55 334.46 307.57 324.75 319.21 315.83 331.49 307.82 344.4 300.79 357.91 294.79 379.3 287.75 386.6 285.71" stroke-dasharray="47 45" transform="rotate(65.65, 400, 400)" opacity="0.67"></path><path d="M381.54 291.85Q386.5 299.62 391.6 308.13 396.93 317.26 402.59 326.89 408.63 336.85 415.14 346.97 422.2 357.08 429.86 366.98 429.81 378.3 432.5 389.62 437.78 400.93 445.34 412.25 454.73 423.57 465.42 434.89 468.79 457.33 453.6 460.01 445.78 461.48 437.33 463.76 424.87 456.31 412.02 449.96 398.83 444.73 385.4 440.6 371.79 437.48 358.07 435.27 344.32 433.82 330.62 432.95 322.84 422.01 315.07 411.08 307.76 400.14 301.33 389.21 296.17 378.27 292.56 367.34 290.71 356.41 290.75 345.47 300.18 336.05 310.15 327.25 320.66 319.2 331.74 311.97 343.38 305.62 355.57 300.18 374.92 293.73 381.54 291.85" stroke-dasharray="5 101" transform="rotate(68.17500000000001, 400, 400)" opacity="0.69"></path><path d="M376.84 297.99Q381.69 305.2 386.74 313.06 392.05 321.48 397.68 330.36 403.7 339.57 410.16 348.98 417.11 358.44 424.6 367.8 425.19 378.27 428.1 388.74 433.19 399.21 440.2 409.68 448.77 420.15 458.49 430.62 462.15 451.3 448.99 453.98 442.26 455.45 435 457.63 422.96 450.68 410.64 444.68 398.08 439.65 385.36 435.55 372.54 432.35 359.66 429.96 346.81 428.27 334.02 427.17 326.63 417.05 319.34 406.93 312.51 396.82 306.48 386.7 301.55 376.58 297.97 366.47 295.92 356.36 295.51 346.24 304 337.75 312.95 329.86 322.37 322.65 332.28 316.18 342.68 310.49 353.58 305.58 370.9 299.71 376.84 297.99" stroke-dasharray="1 29" transform="rotate(70.69999999999999, 400, 400)" opacity="0.71"></path><path d="M372.57 304.13Q377.35 310.79 382.35 318.01 387.62 325.72 393.21 333.85 399.16 342.3 405.51 350.96 412.3 359.73 419.56 368.48 420.68 378.11 423.74 387.73 428.6 397.36 435.06 406.99 442.84 416.61 451.61 426.24 446.76 447.35 432 451.49 420.51 445.06 408.82 439.43 396.98 434.61 385.05 430.59 373.07 427.34 361.09 424.81 349.15 422.92 337.31 421.58 330.37 412.28 323.59 402.98 317.25 393.67 311.62 384.37 306.95 375.07 303.44 365.76 301.23 356.46 300.42 347.16 308.01 339.6 315.97 332.59 324.34 326.21 333.12 320.47 342.34 315.41 351.98 311.01 367.32 305.7 372.57 304.13" stroke-dasharray="67 19" transform="rotate(73.225, 400, 400)" opacity="0.74"></path><path d="M368.82 310.28Q378.47 322.95 389.18 337.35 401.2 352.93 414.75 369.05 419.41 386.62 429.91 404.2 444.78 421.77 461.87 439.34 446.79 440.88 428.39 445.34 406.6 434.19 384.5 425.72 362.37 419.86 340.51 416.23 327.81 399.24 316.77 382.24 308.96 365.24 305.5 348.24 319.24 335.46 334.31 324.82 350.82 316.46 368.82 310.28 368.82 310.28 368.82 310.28" stroke-dasharray="37 49" transform="rotate(75.75, 400, 400)" opacity="0.76"></path><path d="M365.67 316.42Q375.15 327.9 385.61 340.85 397.23 354.89 410.15 369.53 415.11 385.44 424.77 401.35 438 417.26 453.23 433.17 439.95 434.82 424.24 439.2 404.05 428.98 383.74 420.95 363.53 415.09 343.64 411.16 332.01 395.76 321.91 380.35 314.53 364.94 310.74 349.52 322.77 338.46 335.87 329.25 357.91 319.17 365.67 316.42" stroke-dasharray="25 24" transform="rotate(78.275, 400, 400)" opacity="0.79"></path><path d="M363.17 322.55Q372.4 332.86 382.5 344.39 393.59 356.87 405.75 369.98 410.84 384.23 419.63 398.49 431.02 425.11 419.64 433.06 401.21 423.78 382.8 416.27 364.58 410.5 346.69 406.37 336.19 392.54 327.05 378.71 320.16 364.88 316.16 351.04 326.56 341.63 337.8 333.75 356.58 324.99 363.17 322.55" stroke-dasharray="101 52" transform="rotate(80.80000000000001, 400, 400)" opacity="0.81"></path><path d="M361.37 328.69Q370.24 337.82 379.85 347.94 390.27 358.88 401.55 370.4 406.6 383.03 414.49 395.65 424.3 419.53 414.65 426.92 398.14 418.61 381.73 411.67 365.55 406.12 349.7 401.89 340.36 389.62 332.19 377.35 325.83 365.08 321.76 352.8 330.62 344.94 340.14 338.32 355.87 330.81 361.37 328.69" stroke-dasharray="26 81" transform="rotate(83.32499999999999, 400, 400)" opacity="0.83"></path><path d="M360.31 334.83Q368.68 342.78 377.65 351.52 387.26 360.93 397.52 370.87 402.38 381.87 409.34 392.86 406.23 413.73 380.57 407.16 366.47 401.93 352.66 397.72 344.5 387 337.34 376.28 333.27 357 342.87 342.97 355.81 336.64 360.31 334.83" stroke-dasharray="31 51" transform="rotate(85.85, 400, 400)" opacity="0.86"></path><path d="M360 340.97Q367.72 347.76 375.89 355.14 384.54 363.05 393.66 371.39 398.19 380.77 404.2 390.16 401.21 408.42 379.35 402.73 367.34 397.93 355.59 393.89 348.64 384.71 342.48 375.53 338.48 359.22 346.02 347.7 356.41 342.49 360 340.97" stroke-dasharray="86 37" transform="rotate(88.375, 400, 400)" opacity="0.88"></path><path d="M360.45 347.11Q374.55 358.8 389.97 372.02 399.05 387.6 411.5 403.18 405.07 405.14 398.44 408.51 378.12 398.39 358.5 390.38 347.62 375.1 339.67 359.82 355.02 349.81 360.45 347.11" stroke-dasharray="56 34" transform="rotate(90.9, 400, 400)" opacity="0.91"></path><path d="M361.66 353.25Q373.62 362.49 386.41 372.78 386.51 393.24 361.42 387.22 357.41 359.72 361.66 353.25" stroke-dasharray="5 37" transform="rotate(93.42500000000001, 400, 400)" opacity="0.93"></path><path d="M363.59 359.39Q373.06 366.25 382.98 373.71 363.89 365.84 363.59 359.39" stroke-dasharray="56 4" transform="rotate(95.94999999999999, 400, 400)" opacity="0.95"></path><path d="M366.22 365.53Q366.45 369.58 366.22 365.53" stroke-dasharray="63 12" transform="rotate(98.475, 400, 400)" opacity="0.98"></path></g></svg>