<svg xmlns="http://www.w3.org/2000/svg" version="1.1" xmlns:xlink="http://www.w3.org/1999/xlink" xmlns:svgjs="http://svgjs.dev/svgjs" width="1440" height="560" preserveAspectRatio="none" viewBox="0 0 1440 560"><g mask="url(&quot;#SvgjsMask2895&quot;)" fill="none"><g mask="url(&quot;#SvgjsMask2897&quot;)"><path d="M1339.5 294.5L1320.5 275.5L1301.5 275.5M1282.5 294.5L1263.5 275.5L1244.5 275.5M1358.5 294.5L1339.5 275.5L1320.5 256.5L1301.5 256.5L1282.5 256.5L1263.5 256.5M1453.5 275.5L1434.5 275.5L1415.5 275.5L1396.5 275.5L1377.5 294.5L1358.5 294.5L1339.5 294.5L1320.5 294.5L1301.5 294.5L1282.5 294.5L1263.5 294.5L1244.5 294.5" stroke="url(&quot;#SvgjsRadialGradient2896&quot;)" stroke-width="3.17"></path><path d="M1239.75 294.5 a4.75 4.75 0 1 0 9.5 0 a4.75 4.75 0 1 0 -9.5 0zM1296.75 275.5 a4.75 4.75 0 1 0 9.5 0 a4.75 4.75 0 1 0 -9.5 0zM1239.75 275.5 a4.75 4.75 0 1 0 9.5 0 a4.75 4.75 0 1 0 -9.5 0zM1258.75 256.5 a4.75 4.75 0 1 0 9.5 0 a4.75 4.75 0 1 0 -9.5 0z" fill="url(&quot;#SvgjsRadialGradient2896&quot;)"></path><path d="M1453.5 294.5L1434.5 294.5L1415.5 294.5L1396.5 294.5L1377.5 313.5L1358.5 313.5L1339.5 313.5" stroke="url(&quot;#SvgjsRadialGradient2896&quot;)" stroke-width="3.17"></path><path d="M1334.75 313.5 a4.75 4.75 0 1 0 9.5 0 a4.75 4.75 0 1 0 -9.5 0z" fill="url(&quot;#SvgjsRadialGradient2896&quot;)"></path><path d="M1187.5 237.5L1168.5 256.5L1149.5 256.5M1054.5 256.5L1035.5 275.5L1016.5 294.5L997.5 294.5L978.5 294.5L959.5 294.5L940.5 294.5M1244.5 237.5L1225.5 256.5L1206.5 256.5L1187.5 256.5M1035.5 256.5L1016.5 256.5M1358.5 237.5L1339.5 256.5M1130.5 237.5L1111.5 256.5L1092.5 275.5L1073.5 275.5L1054.5 275.5L1035.5 294.5L1016.5 313.5M1453.5 256.5L1434.5 256.5L1415.5 256.5L1396.5 256.5L1377.5 256.5L1358.5 237.5L1339.5 237.5L1320.5 237.5L1301.5 237.5L1282.5 237.5L1263.5 237.5L1244.5 237.5L1225.5 237.5L1206.5 237.5L1187.5 237.5L1168.5 237.5L1149.5 237.5L1130.5 237.5L1111.5 237.5L1092.5 237.5L1073.5 256.5L1054.5 256.5L1035.5 256.5L1016.5 275.5L997.5 275.5" stroke="url(&quot;#SvgjsRadialGradient2896&quot;)" stroke-width="3.17"></path><path d="M992.75 275.5 a4.75 4.75 0 1 0 9.5 0 a4.75 4.75 0 1 0 -9.5 0zM1144.75 256.5 a4.75 4.75 0 1 0 9.5 0 a4.75 4.75 0 1 0 -9.5 0zM935.75 294.5 a4.75 4.75 0 1 0 9.5 0 a4.75 4.75 0 1 0 -9.5 0zM1182.75 256.5 a4.75 4.75 0 1 0 9.5 0 a4.75 4.75 0 1 0 -9.5 0zM1011.75 256.5 a4.75 4.75 0 1 0 9.5 0 a4.75 4.75 0 1 0 -9.5 0zM1334.75 256.5 a4.75 4.75 0 1 0 9.5 0 a4.75 4.75 0 1 0 -9.5 0zM1011.75 313.5 a4.75 4.75 0 1 0 9.5 0 a4.75 4.75 0 1 0 -9.5 0z" fill="url(&quot;#SvgjsRadialGradient2896&quot;)"></path><path d="M1358.5 332.5L1339.5 332.5L1320.5 332.5M883.5 332.5L864.5 351.5L845.5 351.5L826.5 351.5L807.5 351.5L788.5 351.5L769.5 351.5L750.5 351.5L731.5 351.5L712.5 351.5L693.5 351.5M769.5 332.5L750.5 313.5L731.5 313.5L712.5 313.5L693.5 313.5M1149.5 351.5L1130.5 332.5L1111.5 332.5L1092.5 332.5L1073.5 332.5L1054.5 332.5L1035.5 332.5M1263.5 351.5L1244.5 332.5L1225.5 313.5L1206.5 313.5L1187.5 313.5L1168.5 313.5L1149.5 313.5L1130.5 313.5M940.5 332.5L921.5 313.5L902.5 313.5L883.5 313.5M902.5 332.5L883.5 351.5L864.5 370.5L845.5 370.5L826.5 370.5M1282.5 351.5L1263.5 332.5L1244.5 313.5M807.5 332.5L788.5 313.5L769.5 313.5L750.5 294.5L731.5 294.5M845.5 332.5L826.5 313.5L807.5 313.5L788.5 294.5L769.5 294.5M1453.5 313.5L1434.5 313.5L1415.5 313.5L1396.5 313.5L1377.5 332.5L1358.5 332.5L1339.5 351.5L1320.5 351.5L1301.5 351.5L1282.5 351.5L1263.5 351.5L1244.5 351.5L1225.5 351.5L1206.5 351.5L1187.5 351.5L1168.5 351.5L1149.5 351.5L1130.5 351.5L1111.5 351.5L1092.5 351.5L1073.5 351.5L1054.5 351.5L1035.5 351.5L1016.5 351.5L997.5 351.5L978.5 332.5L959.5 332.5L940.5 332.5L921.5 332.5L902.5 332.5L883.5 332.5L864.5 332.5L845.5 332.5L826.5 332.5L807.5 332.5L788.5 332.5L769.5 332.5L750.5 332.5L731.5 332.5L712.5 332.5" stroke="url(&quot;#SvgjsRadialGradient2896&quot;)" stroke-width="3.17"></path><path d="M707.75 332.5 a4.75 4.75 0 1 0 9.5 0 a4.75 4.75 0 1 0 -9.5 0zM1315.75 332.5 a4.75 4.75 0 1 0 9.5 0 a4.75 4.75 0 1 0 -9.5 0zM688.75 351.5 a4.75 4.75 0 1 0 9.5 0 a4.75 4.75 0 1 0 -9.5 0zM688.75 313.5 a4.75 4.75 0 1 0 9.5 0 a4.75 4.75 0 1 0 -9.5 0zM1030.75 332.5 a4.75 4.75 0 1 0 9.5 0 a4.75 4.75 0 1 0 -9.5 0zM1125.75 313.5 a4.75 4.75 0 1 0 9.5 0 a4.75 4.75 0 1 0 -9.5 0zM878.75 313.5 a4.75 4.75 0 1 0 9.5 0 a4.75 4.75 0 1 0 -9.5 0zM821.75 370.5 a4.75 4.75 0 1 0 9.5 0 a4.75 4.75 0 1 0 -9.5 0zM1239.75 313.5 a4.75 4.75 0 1 0 9.5 0 a4.75 4.75 0 1 0 -9.5 0zM726.75 294.5 a4.75 4.75 0 1 0 9.5 0 a4.75 4.75 0 1 0 -9.5 0zM764.75 294.5 a4.75 4.75 0 1 0 9.5 0 a4.75 4.75 0 1 0 -9.5 0z" fill="url(&quot;#SvgjsRadialGradient2896&quot;)"></path><path d="M940.5 199.5L921.5 218.5L902.5 218.5L883.5 218.5L864.5 218.5M807.5 199.5L788.5 218.5M826.5 199.5L807.5 218.5L788.5 237.5L769.5 237.5L750.5 237.5M1054.5 218.5L1035.5 237.5L1016.5 237.5L997.5 237.5L978.5 237.5M845.5 199.5L826.5 218.5L807.5 237.5L788.5 256.5L769.5 275.5L750.5 275.5L731.5 275.5L712.5 275.5L693.5 275.5L674.5 275.5L655.5 275.5L636.5 275.5L617.5 275.5L598.5 275.5M750.5 199.5L731.5 218.5M674.5 199.5L655.5 218.5L636.5 218.5L617.5 218.5L598.5 218.5L579.5 218.5M1073.5 218.5L1054.5 237.5M769.5 199.5L750.5 218.5M712.5 199.5L693.5 218.5M959.5 199.5L940.5 218.5L921.5 237.5L902.5 237.5L883.5 237.5L864.5 237.5L845.5 256.5L826.5 275.5M1453.5 237.5L1434.5 237.5L1415.5 237.5L1396.5 237.5L1377.5 237.5L1358.5 218.5L1339.5 218.5L1320.5 218.5L1301.5 218.5L1282.5 218.5L1263.5 218.5L1244.5 218.5L1225.5 218.5L1206.5 218.5L1187.5 218.5L1168.5 218.5L1149.5 218.5L1130.5 218.5L1111.5 218.5L1092.5 218.5L1073.5 218.5L1054.5 218.5L1035.5 218.5L1016.5 218.5L997.5 218.5L978.5 218.5L959.5 199.5L940.5 199.5L921.5 199.5L902.5 199.5L883.5 199.5L864.5 199.5L845.5 199.5L826.5 199.5L807.5 199.5L788.5 199.5L769.5 199.5L750.5 199.5L731.5 199.5L712.5 199.5L693.5 199.5L674.5 199.5L655.5 199.5L636.5 199.5" stroke="url(&quot;#SvgjsRadialGradient2896&quot;)" stroke-width="3.17"></path><path d="M631.75 199.5 a4.75 4.75 0 1 0 9.5 0 a4.75 4.75 0 1 0 -9.5 0zM859.75 218.5 a4.75 4.75 0 1 0 9.5 0 a4.75 4.75 0 1 0 -9.5 0zM783.75 218.5 a4.75 4.75 0 1 0 9.5 0 a4.75 4.75 0 1 0 -9.5 0zM745.75 237.5 a4.75 4.75 0 1 0 9.5 0 a4.75 4.75 0 1 0 -9.5 0zM973.75 237.5 a4.75 4.75 0 1 0 9.5 0 a4.75 4.75 0 1 0 -9.5 0zM593.75 275.5 a4.75 4.75 0 1 0 9.5 0 a4.75 4.75 0 1 0 -9.5 0zM726.75 218.5 a4.75 4.75 0 1 0 9.5 0 a4.75 4.75 0 1 0 -9.5 0zM574.75 218.5 a4.75 4.75 0 1 0 9.5 0 a4.75 4.75 0 1 0 -9.5 0zM1049.75 237.5 a4.75 4.75 0 1 0 9.5 0 a4.75 4.75 0 1 0 -9.5 0zM745.75 218.5 a4.75 4.75 0 1 0 9.5 0 a4.75 4.75 0 1 0 -9.5 0zM688.75 218.5 a4.75 4.75 0 1 0 9.5 0 a4.75 4.75 0 1 0 -9.5 0zM821.75 275.5 a4.75 4.75 0 1 0 9.5 0 a4.75 4.75 0 1 0 -9.5 0z" fill="url(&quot;#SvgjsRadialGradient2896&quot;)"></path><path d="M1168.5 389.5L1149.5 389.5M1415.5 332.5L1396.5 351.5M1263.5 389.5L1244.5 370.5L1225.5 370.5L1206.5 370.5M1092.5 370.5L1073.5 389.5L1054.5 389.5M1244.5 389.5L1225.5 408.5L1206.5 408.5M1453.5 332.5L1434.5 332.5L1415.5 332.5L1396.5 332.5L1377.5 351.5L1358.5 351.5L1339.5 370.5L1320.5 370.5L1301.5 370.5L1282.5 370.5L1263.5 389.5L1244.5 389.5L1225.5 389.5L1206.5 389.5L1187.5 389.5L1168.5 389.5L1149.5 370.5L1130.5 370.5L1111.5 370.5L1092.5 370.5L1073.5 370.5" stroke="url(&quot;#SvgjsRadialGradient2896&quot;)" stroke-width="3.17"></path><path d="M1068.75 370.5 a4.75 4.75 0 1 0 9.5 0 a4.75 4.75 0 1 0 -9.5 0zM1144.75 389.5 a4.75 4.75 0 1 0 9.5 0 a4.75 4.75 0 1 0 -9.5 0zM1391.75 351.5 a4.75 4.75 0 1 0 9.5 0 a4.75 4.75 0 1 0 -9.5 0zM1201.75 370.5 a4.75 4.75 0 1 0 9.5 0 a4.75 4.75 0 1 0 -9.5 0zM1049.75 389.5 a4.75 4.75 0 1 0 9.5 0 a4.75 4.75 0 1 0 -9.5 0zM1201.75 408.5 a4.75 4.75 0 1 0 9.5 0 a4.75 4.75 0 1 0 -9.5 0z" fill="url(&quot;#SvgjsRadialGradient2896&quot;)"></path><path d="M503.5 161.5L484.5 180.5M997.5 199.5L978.5 199.5M1149.5 199.5L1130.5 180.5L1111.5 180.5L1092.5 180.5M712.5 180.5L693.5 161.5L674.5 161.5L655.5 161.5L636.5 161.5L617.5 161.5M1073.5 199.5L1054.5 180.5L1035.5 161.5L1016.5 161.5L997.5 161.5L978.5 161.5L959.5 161.5M807.5 180.5L788.5 161.5L769.5 161.5L750.5 142.5L731.5 142.5L712.5 123.5L693.5 123.5L674.5 123.5L655.5 123.5L636.5 123.5L617.5 123.5L598.5 123.5M541.5 180.5L522.5 199.5L503.5 199.5L484.5 199.5L465.5 199.5M826.5 180.5L807.5 161.5L788.5 142.5L769.5 142.5L750.5 123.5L731.5 123.5L712.5 104.5L693.5 85.5L674.5 85.5L655.5 104.5L636.5 104.5L617.5 104.5L598.5 85.5L579.5 85.5M522.5 180.5L503.5 180.5M731.5 180.5L712.5 161.5L693.5 142.5L674.5 142.5L655.5 142.5L636.5 142.5L617.5 142.5L598.5 142.5L579.5 142.5L560.5 161.5L541.5 161.5L522.5 161.5L503.5 142.5L484.5 142.5L465.5 142.5M598.5 180.5L579.5 199.5L560.5 199.5L541.5 199.5L522.5 218.5L503.5 218.5L484.5 218.5L465.5 218.5M1016.5 199.5L997.5 180.5M1168.5 199.5L1149.5 180.5M1453.5 218.5L1434.5 218.5L1415.5 218.5L1396.5 218.5L1377.5 218.5L1358.5 199.5L1339.5 199.5L1320.5 199.5L1301.5 199.5L1282.5 199.5L1263.5 199.5L1244.5 199.5L1225.5 199.5L1206.5 199.5L1187.5 199.5L1168.5 199.5L1149.5 199.5L1130.5 199.5L1111.5 199.5L1092.5 199.5L1073.5 199.5L1054.5 199.5L1035.5 199.5L1016.5 199.5L997.5 199.5L978.5 180.5L959.5 180.5L940.5 180.5L921.5 180.5L902.5 180.5L883.5 180.5L864.5 180.5L845.5 180.5L826.5 180.5L807.5 180.5L788.5 180.5L769.5 180.5L750.5 180.5L731.5 180.5L712.5 180.5L693.5 180.5L674.5 180.5L655.5 180.5L636.5 180.5L617.5 180.5L598.5 180.5L579.5 180.5L560.5 180.5L541.5 180.5L522.5 180.5L503.5 161.5L484.5 161.5" stroke="url(&quot;#SvgjsRadialGradient2896&quot;)" stroke-width="3.17"></path><path d="M479.75 161.5 a4.75 4.75 0 1 0 9.5 0 a4.75 4.75 0 1 0 -9.5 0zM479.75 180.5 a4.75 4.75 0 1 0 9.5 0 a4.75 4.75 0 1 0 -9.5 0zM973.75 199.5 a4.75 4.75 0 1 0 9.5 0 a4.75 4.75 0 1 0 -9.5 0zM1087.75 180.5 a4.75 4.75 0 1 0 9.5 0 a4.75 4.75 0 1 0 -9.5 0zM612.75 161.5 a4.75 4.75 0 1 0 9.5 0 a4.75 4.75 0 1 0 -9.5 0zM954.75 161.5 a4.75 4.75 0 1 0 9.5 0 a4.75 4.75 0 1 0 -9.5 0zM593.75 123.5 a4.75 4.75 0 1 0 9.5 0 a4.75 4.75 0 1 0 -9.5 0zM460.75 199.5 a4.75 4.75 0 1 0 9.5 0 a4.75 4.75 0 1 0 -9.5 0zM574.75 85.5 a4.75 4.75 0 1 0 9.5 0 a4.75 4.75 0 1 0 -9.5 0zM498.75 180.5 a4.75 4.75 0 1 0 9.5 0 a4.75 4.75 0 1 0 -9.5 0zM460.75 142.5 a4.75 4.75 0 1 0 9.5 0 a4.75 4.75 0 1 0 -9.5 0zM460.75 218.5 a4.75 4.75 0 1 0 9.5 0 a4.75 4.75 0 1 0 -9.5 0zM992.75 180.5 a4.75 4.75 0 1 0 9.5 0 a4.75 4.75 0 1 0 -9.5 0zM1144.75 180.5 a4.75 4.75 0 1 0 9.5 0 a4.75 4.75 0 1 0 -9.5 0z" fill="url(&quot;#SvgjsRadialGradient2896&quot;)"></path><path d="M1263.5 408.5L1244.5 408.5M1092.5 408.5L1073.5 427.5L1054.5 427.5L1035.5 427.5L1016.5 446.5L997.5 465.5L978.5 465.5L959.5 484.5M1168.5 427.5L1149.5 427.5L1130.5 427.5L1111.5 427.5L1092.5 427.5L1073.5 446.5L1054.5 446.5M1434.5 351.5L1415.5 351.5M845.5 446.5L826.5 427.5M883.5 446.5L864.5 427.5L845.5 427.5M1130.5 408.5L1111.5 389.5L1092.5 389.5M1016.5 427.5L997.5 408.5L978.5 408.5L959.5 427.5L940.5 427.5L921.5 408.5L902.5 408.5L883.5 408.5L864.5 408.5L845.5 408.5L826.5 408.5L807.5 408.5L788.5 408.5L769.5 408.5L750.5 408.5M1453.5 351.5L1434.5 351.5L1415.5 370.5L1396.5 370.5L1377.5 370.5L1358.5 370.5L1339.5 389.5L1320.5 389.5L1301.5 389.5L1282.5 389.5L1263.5 408.5L1244.5 427.5L1225.5 427.5L1206.5 427.5L1187.5 427.5L1168.5 427.5L1149.5 408.5L1130.5 408.5L1111.5 408.5L1092.5 408.5L1073.5 408.5L1054.5 408.5L1035.5 408.5L1016.5 427.5L997.5 446.5L978.5 446.5L959.5 446.5L940.5 446.5L921.5 446.5L902.5 446.5L883.5 446.5L864.5 446.5L845.5 446.5L826.5 446.5" stroke="url(&quot;#SvgjsRadialGradient2896&quot;)" stroke-width="3.17"></path><path d="M821.75 446.5 a4.75 4.75 0 1 0 9.5 0 a4.75 4.75 0 1 0 -9.5 0zM1239.75 408.5 a4.75 4.75 0 1 0 9.5 0 a4.75 4.75 0 1 0 -9.5 0zM954.75 484.5 a4.75 4.75 0 1 0 9.5 0 a4.75 4.75 0 1 0 -9.5 0zM1049.75 446.5 a4.75 4.75 0 1 0 9.5 0 a4.75 4.75 0 1 0 -9.5 0zM1410.75 351.5 a4.75 4.75 0 1 0 9.5 0 a4.75 4.75 0 1 0 -9.5 0zM821.75 427.5 a4.75 4.75 0 1 0 9.5 0 a4.75 4.75 0 1 0 -9.5 0zM840.75 427.5 a4.75 4.75 0 1 0 9.5 0 a4.75 4.75 0 1 0 -9.5 0zM1087.75 389.5 a4.75 4.75 0 1 0 9.5 0 a4.75 4.75 0 1 0 -9.5 0zM745.75 408.5 a4.75 4.75 0 1 0 9.5 0 a4.75 4.75 0 1 0 -9.5 0z" fill="url(&quot;#SvgjsRadialGradient2896&quot;)"></path><path d="M1263.5 161.5L1244.5 180.5L1225.5 180.5L1206.5 180.5L1187.5 180.5L1168.5 180.5M1206.5 161.5L1187.5 142.5M1092.5 142.5L1073.5 123.5L1054.5 123.5M1149.5 161.5L1130.5 161.5L1111.5 161.5M1282.5 161.5L1263.5 180.5M1453.5 199.5L1434.5 199.5L1415.5 199.5L1396.5 199.5L1377.5 199.5L1358.5 180.5L1339.5 180.5L1320.5 180.5L1301.5 180.5L1282.5 161.5L1263.5 161.5L1244.5 161.5L1225.5 161.5L1206.5 161.5L1187.5 161.5L1168.5 161.5L1149.5 161.5L1130.5 142.5L1111.5 142.5L1092.5 142.5L1073.5 142.5L1054.5 142.5" stroke="url(&quot;#SvgjsRadialGradient2896&quot;)" stroke-width="3.17"></path><path d="M1049.75 142.5 a4.75 4.75 0 1 0 9.5 0 a4.75 4.75 0 1 0 -9.5 0zM1163.75 180.5 a4.75 4.75 0 1 0 9.5 0 a4.75 4.75 0 1 0 -9.5 0zM1182.75 142.5 a4.75 4.75 0 1 0 9.5 0 a4.75 4.75 0 1 0 -9.5 0zM1049.75 123.5 a4.75 4.75 0 1 0 9.5 0 a4.75 4.75 0 1 0 -9.5 0zM1106.75 161.5 a4.75 4.75 0 1 0 9.5 0 a4.75 4.75 0 1 0 -9.5 0zM1258.75 180.5 a4.75 4.75 0 1 0 9.5 0 a4.75 4.75 0 1 0 -9.5 0z" fill="url(&quot;#SvgjsRadialGradient2896&quot;)"></path><path d="M1225.5 465.5L1206.5 465.5L1187.5 465.5L1168.5 465.5M1187.5 484.5L1168.5 503.5L1149.5 503.5M1244.5 446.5L1225.5 446.5M1206.5 484.5L1187.5 503.5L1168.5 522.5M1453.5 370.5L1434.5 370.5L1415.5 389.5L1396.5 389.5L1377.5 389.5L1358.5 389.5L1339.5 408.5L1320.5 408.5L1301.5 408.5L1282.5 408.5L1263.5 427.5L1244.5 446.5L1225.5 465.5L1206.5 484.5L1187.5 484.5L1168.5 484.5L1149.5 484.5L1130.5 484.5L1111.5 503.5" stroke="url(&quot;#SvgjsRadialGradient2896&quot;)" stroke-width="3.17"></path><path d="M1106.75 503.5 a4.75 4.75 0 1 0 9.5 0 a4.75 4.75 0 1 0 -9.5 0zM1163.75 465.5 a4.75 4.75 0 1 0 9.5 0 a4.75 4.75 0 1 0 -9.5 0zM1144.75 503.5 a4.75 4.75 0 1 0 9.5 0 a4.75 4.75 0 1 0 -9.5 0zM1220.75 446.5 a4.75 4.75 0 1 0 9.5 0 a4.75 4.75 0 1 0 -9.5 0zM1163.75 522.5 a4.75 4.75 0 1 0 9.5 0 a4.75 4.75 0 1 0 -9.5 0z" fill="url(&quot;#SvgjsRadialGradient2896&quot;)"></path><path d="M1282.5 142.5L1263.5 123.5L1244.5 123.5L1225.5 123.5L1206.5 123.5M1415.5 161.5L1396.5 161.5L1377.5 161.5L1358.5 142.5M1339.5 161.5L1320.5 142.5L1301.5 142.5L1282.5 123.5M1453.5 180.5L1434.5 161.5L1415.5 161.5L1396.5 180.5L1377.5 180.5L1358.5 161.5L1339.5 161.5L1320.5 161.5L1301.5 161.5L1282.5 142.5L1263.5 142.5L1244.5 142.5L1225.5 142.5" stroke="url(&quot;#SvgjsRadialGradient2896&quot;)" stroke-width="3.17"></path><path d="M1220.75 142.5 a4.75 4.75 0 1 0 9.5 0 a4.75 4.75 0 1 0 -9.5 0zM1201.75 123.5 a4.75 4.75 0 1 0 9.5 0 a4.75 4.75 0 1 0 -9.5 0zM1353.75 142.5 a4.75 4.75 0 1 0 9.5 0 a4.75 4.75 0 1 0 -9.5 0zM1277.75 123.5 a4.75 4.75 0 1 0 9.5 0 a4.75 4.75 0 1 0 -9.5 0z" fill="url(&quot;#SvgjsRadialGradient2896&quot;)"></path><path d="M1282.5 446.5L1263.5 465.5M1377.5 408.5L1358.5 427.5L1339.5 446.5M1396.5 408.5L1377.5 427.5M1453.5 389.5L1434.5 389.5L1415.5 408.5L1396.5 408.5L1377.5 408.5L1358.5 408.5L1339.5 427.5L1320.5 427.5L1301.5 446.5L1282.5 446.5L1263.5 446.5L1244.5 465.5L1225.5 484.5" stroke="url(&quot;#SvgjsRadialGradient2896&quot;)" stroke-width="3.17"></path><path d="M1220.75 484.5 a4.75 4.75 0 1 0 9.5 0 a4.75 4.75 0 1 0 -9.5 0zM1258.75 465.5 a4.75 4.75 0 1 0 9.5 0 a4.75 4.75 0 1 0 -9.5 0zM1334.75 446.5 a4.75 4.75 0 1 0 9.5 0 a4.75 4.75 0 1 0 -9.5 0zM1372.75 427.5 a4.75 4.75 0 1 0 9.5 0 a4.75 4.75 0 1 0 -9.5 0z" fill="url(&quot;#SvgjsRadialGradient2896&quot;)"></path><path d="M1453.5 408.5L1434.5 408.5L1415.5 427.5" stroke="url(&quot;#SvgjsRadialGradient2896&quot;)" stroke-width="3.17"></path><path d="M1410.75 427.5 a4.75 4.75 0 1 0 9.5 0 a4.75 4.75 0 1 0 -9.5 0z" fill="url(&quot;#SvgjsRadialGradient2896&quot;)"></path><path d="M1453.5 142.5L1434.5 142.5L1415.5 142.5" stroke="url(&quot;#SvgjsRadialGradient2896&quot;)" stroke-width="3.17"></path><path d="M1410.75 142.5 a4.75 4.75 0 1 0 9.5 0 a4.75 4.75 0 1 0 -9.5 0z" fill="url(&quot;#SvgjsRadialGradient2896&quot;)"></path></g></g><defs><mask id="SvgjsMask2895"><rect width="1440" height="560" fill="#ffffff"></rect></mask><radialGradient cx="1440" cy="280" r="1046.17" gradientUnits="userSpaceOnUse" id="SvgjsRadialGradient2896"><stop stop-color="rgba(11, 83, 148, 1)" offset="0"></stop><stop stop-color="rgba(217, 196, 121, 1)" offset="0.6"></stop></radialGradient><mask id="SvgjsMask2897"><rect width="1440" height="560" fill="white"></rect><path d="M1242.12 294.5 a2.38 2.38 0 1 0 4.76 0 a2.38 2.38 0 1 0 -4.76 0zM1299.12 275.5 a2.38 2.38 0 1 0 4.76 0 a2.38 2.38 0 1 0 -4.76 0zM1242.12 275.5 a2.38 2.38 0 1 0 4.76 0 a2.38 2.38 0 1 0 -4.76 0zM1261.12 256.5 a2.38 2.38 0 1 0 4.76 0 a2.38 2.38 0 1 0 -4.76 0z" fill="black"></path><path d="M1337.12 313.5 a2.38 2.38 0 1 0 4.76 0 a2.38 2.38 0 1 0 -4.76 0z" fill="black"></path><path d="M995.12 275.5 a2.38 2.38 0 1 0 4.76 0 a2.38 2.38 0 1 0 -4.76 0zM1147.12 256.5 a2.38 2.38 0 1 0 4.76 0 a2.38 2.38 0 1 0 -4.76 0zM938.12 294.5 a2.38 2.38 0 1 0 4.76 0 a2.38 2.38 0 1 0 -4.76 0zM1185.12 256.5 a2.38 2.38 0 1 0 4.76 0 a2.38 2.38 0 1 0 -4.76 0zM1014.12 256.5 a2.38 2.38 0 1 0 4.76 0 a2.38 2.38 0 1 0 -4.76 0zM1337.12 256.5 a2.38 2.38 0 1 0 4.76 0 a2.38 2.38 0 1 0 -4.76 0zM1014.12 313.5 a2.38 2.38 0 1 0 4.76 0 a2.38 2.38 0 1 0 -4.76 0z" fill="black"></path><path d="M710.12 332.5 a2.38 2.38 0 1 0 4.76 0 a2.38 2.38 0 1 0 -4.76 0zM1318.12 332.5 a2.38 2.38 0 1 0 4.76 0 a2.38 2.38 0 1 0 -4.76 0zM691.12 351.5 a2.38 2.38 0 1 0 4.76 0 a2.38 2.38 0 1 0 -4.76 0zM691.12 313.5 a2.38 2.38 0 1 0 4.76 0 a2.38 2.38 0 1 0 -4.76 0zM1033.12 332.5 a2.38 2.38 0 1 0 4.76 0 a2.38 2.38 0 1 0 -4.76 0zM1128.12 313.5 a2.38 2.38 0 1 0 4.76 0 a2.38 2.38 0 1 0 -4.76 0zM881.12 313.5 a2.38 2.38 0 1 0 4.76 0 a2.38 2.38 0 1 0 -4.76 0zM824.12 370.5 a2.38 2.38 0 1 0 4.76 0 a2.38 2.38 0 1 0 -4.76 0zM1242.12 313.5 a2.38 2.38 0 1 0 4.76 0 a2.38 2.38 0 1 0 -4.76 0zM729.12 294.5 a2.38 2.38 0 1 0 4.76 0 a2.38 2.38 0 1 0 -4.76 0zM767.12 294.5 a2.38 2.38 0 1 0 4.76 0 a2.38 2.38 0 1 0 -4.76 0z" fill="black"></path><path d="M634.12 199.5 a2.38 2.38 0 1 0 4.76 0 a2.38 2.38 0 1 0 -4.76 0zM862.12 218.5 a2.38 2.38 0 1 0 4.76 0 a2.38 2.38 0 1 0 -4.76 0zM786.12 218.5 a2.38 2.38 0 1 0 4.76 0 a2.38 2.38 0 1 0 -4.76 0zM748.12 237.5 a2.38 2.38 0 1 0 4.76 0 a2.38 2.38 0 1 0 -4.76 0zM976.12 237.5 a2.38 2.38 0 1 0 4.76 0 a2.38 2.38 0 1 0 -4.76 0zM596.12 275.5 a2.38 2.38 0 1 0 4.76 0 a2.38 2.38 0 1 0 -4.76 0zM729.12 218.5 a2.38 2.38 0 1 0 4.76 0 a2.38 2.38 0 1 0 -4.76 0zM577.12 218.5 a2.38 2.38 0 1 0 4.76 0 a2.38 2.38 0 1 0 -4.76 0zM1052.12 237.5 a2.38 2.38 0 1 0 4.76 0 a2.38 2.38 0 1 0 -4.76 0zM748.12 218.5 a2.38 2.38 0 1 0 4.76 0 a2.38 2.38 0 1 0 -4.76 0zM691.12 218.5 a2.38 2.38 0 1 0 4.76 0 a2.38 2.38 0 1 0 -4.76 0zM824.12 275.5 a2.38 2.38 0 1 0 4.76 0 a2.38 2.38 0 1 0 -4.76 0z" fill="black"></path><path d="M1071.12 370.5 a2.38 2.38 0 1 0 4.76 0 a2.38 2.38 0 1 0 -4.76 0zM1147.12 389.5 a2.38 2.38 0 1 0 4.76 0 a2.38 2.38 0 1 0 -4.76 0zM1394.12 351.5 a2.38 2.38 0 1 0 4.76 0 a2.38 2.38 0 1 0 -4.76 0zM1204.12 370.5 a2.38 2.38 0 1 0 4.76 0 a2.38 2.38 0 1 0 -4.76 0zM1052.12 389.5 a2.38 2.38 0 1 0 4.76 0 a2.38 2.38 0 1 0 -4.76 0zM1204.12 408.5 a2.38 2.38 0 1 0 4.76 0 a2.38 2.38 0 1 0 -4.76 0z" fill="black"></path><path d="M482.12 161.5 a2.38 2.38 0 1 0 4.76 0 a2.38 2.38 0 1 0 -4.76 0zM482.12 180.5 a2.38 2.38 0 1 0 4.76 0 a2.38 2.38 0 1 0 -4.76 0zM976.12 199.5 a2.38 2.38 0 1 0 4.76 0 a2.38 2.38 0 1 0 -4.76 0zM1090.12 180.5 a2.38 2.38 0 1 0 4.76 0 a2.38 2.38 0 1 0 -4.76 0zM615.12 161.5 a2.38 2.38 0 1 0 4.76 0 a2.38 2.38 0 1 0 -4.76 0zM957.12 161.5 a2.38 2.38 0 1 0 4.76 0 a2.38 2.38 0 1 0 -4.76 0zM596.12 123.5 a2.38 2.38 0 1 0 4.76 0 a2.38 2.38 0 1 0 -4.76 0zM463.12 199.5 a2.38 2.38 0 1 0 4.76 0 a2.38 2.38 0 1 0 -4.76 0zM577.12 85.5 a2.38 2.38 0 1 0 4.76 0 a2.38 2.38 0 1 0 -4.76 0zM501.12 180.5 a2.38 2.38 0 1 0 4.76 0 a2.38 2.38 0 1 0 -4.76 0zM463.12 142.5 a2.38 2.38 0 1 0 4.76 0 a2.38 2.38 0 1 0 -4.76 0zM463.12 218.5 a2.38 2.38 0 1 0 4.76 0 a2.38 2.38 0 1 0 -4.76 0zM995.12 180.5 a2.38 2.38 0 1 0 4.76 0 a2.38 2.38 0 1 0 -4.76 0zM1147.12 180.5 a2.38 2.38 0 1 0 4.76 0 a2.38 2.38 0 1 0 -4.76 0z" fill="black"></path><path d="M824.12 446.5 a2.38 2.38 0 1 0 4.76 0 a2.38 2.38 0 1 0 -4.76 0zM1242.12 408.5 a2.38 2.38 0 1 0 4.76 0 a2.38 2.38 0 1 0 -4.76 0zM957.12 484.5 a2.38 2.38 0 1 0 4.76 0 a2.38 2.38 0 1 0 -4.76 0zM1052.12 446.5 a2.38 2.38 0 1 0 4.76 0 a2.38 2.38 0 1 0 -4.76 0zM1413.12 351.5 a2.38 2.38 0 1 0 4.76 0 a2.38 2.38 0 1 0 -4.76 0zM824.12 427.5 a2.38 2.38 0 1 0 4.76 0 a2.38 2.38 0 1 0 -4.76 0zM843.12 427.5 a2.38 2.38 0 1 0 4.76 0 a2.38 2.38 0 1 0 -4.76 0zM1090.12 389.5 a2.38 2.38 0 1 0 4.76 0 a2.38 2.38 0 1 0 -4.76 0zM748.12 408.5 a2.38 2.38 0 1 0 4.76 0 a2.38 2.38 0 1 0 -4.76 0z" fill="black"></path><path d="M1052.12 142.5 a2.38 2.38 0 1 0 4.76 0 a2.38 2.38 0 1 0 -4.76 0zM1166.12 180.5 a2.38 2.38 0 1 0 4.76 0 a2.38 2.38 0 1 0 -4.76 0zM1185.12 142.5 a2.38 2.38 0 1 0 4.76 0 a2.38 2.38 0 1 0 -4.76 0zM1052.12 123.5 a2.38 2.38 0 1 0 4.76 0 a2.38 2.38 0 1 0 -4.76 0zM1109.12 161.5 a2.38 2.38 0 1 0 4.76 0 a2.38 2.38 0 1 0 -4.76 0zM1261.12 180.5 a2.38 2.38 0 1 0 4.76 0 a2.38 2.38 0 1 0 -4.76 0z" fill="black"></path><path d="M1109.12 503.5 a2.38 2.38 0 1 0 4.76 0 a2.38 2.38 0 1 0 -4.76 0zM1166.12 465.5 a2.38 2.38 0 1 0 4.76 0 a2.38 2.38 0 1 0 -4.76 0zM1147.12 503.5 a2.38 2.38 0 1 0 4.76 0 a2.38 2.38 0 1 0 -4.76 0zM1223.12 446.5 a2.38 2.38 0 1 0 4.76 0 a2.38 2.38 0 1 0 -4.76 0zM1166.12 522.5 a2.38 2.38 0 1 0 4.76 0 a2.38 2.38 0 1 0 -4.76 0z" fill="black"></path><path d="M1223.12 142.5 a2.38 2.38 0 1 0 4.76 0 a2.38 2.38 0 1 0 -4.76 0zM1204.12 123.5 a2.38 2.38 0 1 0 4.76 0 a2.38 2.38 0 1 0 -4.76 0zM1356.12 142.5 a2.38 2.38 0 1 0 4.76 0 a2.38 2.38 0 1 0 -4.76 0zM1280.12 123.5 a2.38 2.38 0 1 0 4.76 0 a2.38 2.38 0 1 0 -4.76 0z" fill="black"></path><path d="M1223.12 484.5 a2.38 2.38 0 1 0 4.76 0 a2.38 2.38 0 1 0 -4.76 0zM1261.12 465.5 a2.38 2.38 0 1 0 4.76 0 a2.38 2.38 0 1 0 -4.76 0zM1337.12 446.5 a2.38 2.38 0 1 0 4.76 0 a2.38 2.38 0 1 0 -4.76 0zM1375.12 427.5 a2.38 2.38 0 1 0 4.76 0 a2.38 2.38 0 1 0 -4.76 0z" fill="black"></path><path d="M1413.12 427.5 a2.38 2.38 0 1 0 4.76 0 a2.38 2.38 0 1 0 -4.76 0z" fill="black"></path><path d="M1413.12 142.5 a2.38 2.38 0 1 0 4.76 0 a2.38 2.38 0 1 0 -4.76 0z" fill="black"></path></mask></defs></svg>