<?xml version="1.0" encoding="UTF-8" standalone="no"?>
<svg
   version="1.1"
   width="4250"
   height="730.93298"
   viewBox="0 0 4250.0003 730.93299"
   id="svg4"
   xmlns:xlink="http://www.w3.org/1999/xlink"
   xmlns="http://www.w3.org/2000/svg"
   xmlns:svg="http://www.w3.org/2000/svg">
  <defs
     id="defs4">
    <linearGradient
       xlink:href="#SvgjsLinearGradient1178"
       id="linearGradient4"
       gradientTransform="scale(1.2107178,0.82595633)"
       x1="6.7104363"
       y1="26.197285"
       x2="75.602974"
       y2="26.197285"
       gradientUnits="userSpaceOnUse" />
    <linearGradient
       xlink:href="#SvgjsLinearGradient1178"
       id="linearGradient5"
       gradientTransform="scale(1.2107178,0.82595633)"
       x1="6.7104363"
       y1="26.197285"
       x2="75.602974"
       y2="26.197285"
       gradientUnits="userSpaceOnUse" />
    <linearGradient
       xlink:href="#SvgjsLinearGradient1178"
       id="linearGradient6"
       gradientTransform="scale(1.2107178,0.82595633)"
       x1="6.7104363"
       y1="26.197285"
       x2="75.602974"
       y2="26.197285"
       gradientUnits="userSpaceOnUse" />
    <linearGradient
       xlink:href="#SvgjsLinearGradient1178"
       id="linearGradient7"
       gradientTransform="scale(1.2107178,0.82595633)"
       x1="6.7104363"
       y1="26.197285"
       x2="75.602974"
       y2="26.197285"
       gradientUnits="userSpaceOnUse" />
  </defs>
  <g
     transform="matrix(8.5714286,0,0,8.5714286,32.019563,22.377399)"
     id="g4">
    <defs
       id="SvgjsDefs1171">
      <linearGradient
         id="SvgjsLinearGradient1178">
        <stop
           id="SvgjsStop1179"
           stop-color="#8f5e25"
           offset="0" />
        <stop
           id="SvgjsStop1180"
           stop-color="#fbf4a1"
           offset="0.5" />
        <stop
           id="SvgjsStop1181"
           stop-color="#8f5e25"
           offset="1" />
      </linearGradient>
    </defs>
    <g
       id="SvgjsG1172"
       featureKey="symbolFeature-0"
       transform="matrix(1.4986315,0,0,1.4986315,-15.911164,-35.037804)"
       fill="url(#SvgjsLinearGradient1178)"
       style="fill:url(#linearGradient7)">
      <g
         id="g3"
         style="fill:url(#linearGradient6)">
        <g
           id="g2"
           style="fill:url(#linearGradient5)">
          <defs
             id="defs1">
            <path
               id="a"
               d="m 29.17,23.548 c -1.182,-0.451 -2.395,-0.836 -3.646,-1.145 v 0 c -0.094,-0.027 -0.19,-0.044 -0.28,-0.056 v 0 c -0.175,-0.033 -0.343,-0.056 -0.495,-0.06 v 0 c -0.238,-0.012 -0.435,0.011 -0.598,0.054 v 0 c -0.166,0.04 -0.286,0.106 -0.354,0.189 v 0 c -0.071,0.09 -0.088,0.197 -0.041,0.321 v 0 c 0.31,0.814 0.603,1.658 0.884,2.513 v 0 c 0.048,0.146 0.156,0.299 0.31,0.457 v 0 c 0.15,0.151 0.349,0.309 0.58,0.459 v 0 c 0.229,0.151 0.484,0.295 0.76,0.421 v 0 c 0.272,0.127 0.559,0.238 0.846,0.329 v 0 c 1.716,0.513 3.384,1.131 5.016,1.841 v 0 c 0.036,0.014 0.072,0.028 0.109,0.045 v 0 c 0.211,0.084 0.397,0.143 0.562,0.181 v 0 c 0.191,0.033 0.351,0.042 0.477,0.015 v 0 c 0.119,-0.03 0.205,-0.086 0.242,-0.177 v 0 C 33.578,28.841 33.575,28.72 33.52,28.57 v 0 c -0.336,-0.905 -0.67,-1.818 -1.016,-2.733 v 0 C 32.453,25.699 32.356,25.54 32.226,25.378 v 0 C 32.094,25.221 31.928,25.051 31.74,24.885 v 0 c -0.188,-0.158 -0.401,-0.321 -0.623,-0.46 v 0 c -0.223,-0.146 -0.467,-0.271 -0.71,-0.378 v 0 c -0.336,-0.144 -0.67,-0.28 -1.011,-0.412 v 0 z m 5.854,2.923 c -0.164,-0.062 -0.303,-0.083 -0.41,-0.073 v 0 c -0.105,0.008 -0.178,0.051 -0.21,0.127 v 0 c -0.035,0.08 -0.027,0.192 0.027,0.329 v 0 c 0.356,0.92 0.702,1.837 1.052,2.739 v 0 c 0.059,0.15 0.159,0.323 0.294,0.499 v 0 c 0.134,0.181 0.302,0.365 0.488,0.548 v 0 c 0.186,0.187 0.392,0.366 0.604,0.531 v 0 c 0.213,0.169 0.434,0.319 0.649,0.445 v 0 c 1.289,0.759 2.554,1.578 3.795,2.452 v 0 c 0.025,0.017 0.052,0.034 0.081,0.054 v 0 c 0.157,0.107 0.299,0.187 0.415,0.238 v 0 c 0.139,0.062 0.25,0.089 0.326,0.081 v 0 c 0.078,-0.006 0.12,-0.051 0.131,-0.127 v 0 c 0.01,-0.078 -0.019,-0.194 -0.085,-0.34 v 0 c -0.398,-0.885 -0.794,-1.782 -1.195,-2.703 v 0 c -0.06,-0.141 -0.153,-0.302 -0.271,-0.482 v 0 C 40.596,30.621 40.457,30.435 40.3,30.248 v 0 c -0.161,-0.183 -0.334,-0.365 -0.514,-0.539 v 0 C 39.604,29.535 39.42,29.376 39.238,29.24 v 0 c -1.193,-0.893 -2.409,-1.722 -3.651,-2.493 v 0 C 35.513,26.705 35.446,26.669 35.38,26.633 v 0 c -0.101,-0.057 -0.195,-0.101 -0.284,-0.135 v 0 c -0.022,-0.009 -0.05,-0.019 -0.072,-0.027 M 20.155,21.866 C 19.906,21.783 19.621,21.723 19.31,21.68 v 0 C 19,21.644 18.662,21.629 18.312,21.643 v 0 c -2.264,0.089 -4.655,0.481 -7.248,1.356 v 0 c -0.167,0.06 -0.329,0.118 -0.484,0.179 v 0 c -0.261,0.099 -0.504,0.202 -0.736,0.31 v 0 C 9.471,23.659 9.14,23.83 8.872,23.989 v 0 c -0.274,0.156 -0.481,0.303 -0.604,0.413 v 0 c -0.069,0.062 -0.116,0.116 -0.135,0.157 v 0 L 8.13,24.57 c -0.011,0.032 -0.006,0.057 0.018,0.075 v 0 c 0.362,0.294 0.694,0.662 1.001,1.092 v 0 c 0.051,0.076 0.196,0.117 0.408,0.143 v 0 c 0.217,0.021 0.503,0.022 0.826,0.019 v 0 c 0.331,-0.012 0.706,-0.036 1.102,-0.065 v 0 c 0.395,-0.037 0.814,-0.08 1.235,-0.138 v 0 c 2.503,-0.338 4.866,-0.336 7.131,-0.123 v 0 c 0.061,0.009 0.116,0.013 0.175,0.018 v 0 c 0.277,0.021 0.538,0.021 0.768,0.012 v 0 c 0.277,-0.02 0.518,-0.061 0.707,-0.127 v 0 c 0.188,-0.056 0.325,-0.145 0.405,-0.253 v 0 c 0.081,-0.1 0.106,-0.224 0.058,-0.362 v 0 C 21.689,24.044 21.401,23.25 21.098,22.483 v 0 c -0.046,-0.116 -0.157,-0.228 -0.32,-0.332 v 0 C 20.664,22.073 20.525,22 20.361,21.935 v 0 c -0.067,-0.026 -0.133,-0.046 -0.206,-0.069 m 22.36,10.202 c -0.067,-0.005 -0.109,0.031 -0.117,0.097 v 0 c -0.009,0.069 0.017,0.177 0.077,0.315 v 0 c 0.41,0.914 0.818,1.81 1.227,2.682 v 0 c 0.07,0.146 0.169,0.313 0.294,0.494 v 0 c 0.128,0.179 0.272,0.367 0.435,0.559 v 0 c 0.158,0.186 0.332,0.373 0.504,0.544 v 0 c 0.175,0.18 0.354,0.339 0.522,0.48 v 0 c 1.012,0.837 2.01,1.703 3.001,2.595 v 0 c 0.019,0.018 0.04,0.04 0.061,0.062 v 0 c 0.126,0.105 0.234,0.189 0.322,0.247 v 0 c 0.1,0.069 0.181,0.105 0.226,0.098 v 0 c 0.052,0 0.068,-0.035 0.058,-0.105 v 0 c -0.01,-0.07 -0.056,-0.177 -0.133,-0.32 v 0 c -0.447,-0.831 -0.889,-1.69 -1.335,-2.578 v 0 C 47.59,37.105 47.496,36.945 47.384,36.772 v 0 c -0.11,-0.17 -0.24,-0.352 -0.382,-0.539 v 0 c -0.138,-0.181 -0.287,-0.371 -0.435,-0.541 v 0 C 46.416,35.514 46.26,35.347 46.115,35.204 v 0 c -0.951,-0.927 -1.909,-1.827 -2.887,-2.697 v 0 c -0.049,-0.043 -0.097,-0.082 -0.143,-0.122 v 0 C 42.98,32.302 42.883,32.233 42.801,32.181 v 0 c -0.062,-0.036 -0.117,-0.064 -0.168,-0.085 v 0 C 42.59,32.076 42.551,32.069 42.515,32.068 M 27.57,28.39 c -0.02,-0.008 -0.042,-0.014 -0.062,-0.019 v 0 c -0.267,-0.074 -0.515,-0.121 -0.735,-0.13 v 0 c -0.24,-0.015 -0.449,0.011 -0.617,0.068 v 0 c -0.167,0.056 -0.292,0.14 -0.358,0.259 v 0 c -0.072,0.116 -0.087,0.262 -0.039,0.43 v 0 c 0.327,1.122 0.642,2.252 0.95,3.379 v 0 c 0.05,0.187 0.168,0.389 0.332,0.583 v 0 c 0.163,0.198 0.374,0.396 0.621,0.571 v 0 c 0.243,0.182 0.519,0.348 0.809,0.484 v 0 c 0.26,0.128 0.535,0.238 0.81,0.312 v 0 c 0.031,0.01 0.06,0.019 0.093,0.025 v 0 c 1.81,0.48 3.596,1.024 5.345,1.651 v 0 c 0.27,0.104 0.508,0.154 0.713,0.175 v 0 c 0.201,0.019 0.364,0 0.491,-0.051 v 0 c 0.121,-0.053 0.203,-0.134 0.236,-0.252 v 0 c 0.033,-0.112 0.02,-0.262 -0.053,-0.439 v 0 C 35.7,34.4 35.292,33.335 34.884,32.245 v 0 C 34.82,32.082 34.71,31.899 34.567,31.714 v 0 c -0.143,-0.188 -0.323,-0.378 -0.521,-0.555 v 0 c -0.203,-0.187 -0.429,-0.358 -0.669,-0.516 v 0 C 33.143,30.487 32.89,30.35 32.641,30.238 v 0 c -0.56,-0.236 -1.123,-0.468 -1.689,-0.685 v 0 C 29.842,29.124 28.716,28.736 27.57,28.39 m 9.909,4.303 C 37.313,32.646 37.17,32.638 37.064,32.662 v 0 c -0.105,0.023 -0.178,0.09 -0.208,0.182 v 0 c -0.025,0.097 -0.012,0.232 0.054,0.39 v 0 c 0.429,1.074 0.859,2.122 1.292,3.132 v 0 c 0.071,0.175 0.191,0.36 0.343,0.557 v 0 c 0.149,0.186 0.336,0.379 0.543,0.566 v 0 c 0.205,0.188 0.43,0.362 0.663,0.526 v 0 c 0.217,0.149 0.441,0.282 0.655,0.393 v 0 c 0.013,0.008 0.029,0.014 0.046,0.022 v 0 c 1.366,0.67 2.709,1.402 4.032,2.19 v 0 c 0.201,0.123 0.376,0.208 0.517,0.257 v 0 c 0.142,0.045 0.252,0.062 0.323,0.037 v 0 c 0.075,-0.025 0.11,-0.083 0.111,-0.17 v 0 C 45.431,40.65 45.387,40.53 45.302,40.37 v 0 C 44.81,39.433 44.309,38.465 43.819,37.457 v 0 c -0.074,-0.153 -0.183,-0.329 -0.317,-0.51 v 0 c -0.134,-0.183 -0.291,-0.376 -0.463,-0.563 v 0 c -0.171,-0.188 -0.359,-0.38 -0.55,-0.549 v 0 C 42.293,35.66 42.095,35.507 41.906,35.372 v 0 C 40.651,34.51 39.367,33.704 38.063,32.955 v 0 c -0.025,-0.015 -0.051,-0.033 -0.08,-0.046 v 0 c -0.122,-0.067 -0.239,-0.121 -0.349,-0.163 v 0 C 37.578,32.725 37.531,32.708 37.479,32.693 M 21.237,27.049 c -0.315,-0.104 -0.653,-0.18 -1.001,-0.223 v 0 c -2.275,-0.272 -4.634,-0.358 -7.12,-0.148 v 0 c -0.052,0.009 -0.101,0.012 -0.152,0.016 v 0 c -0.363,0.036 -0.708,0.099 -1.021,0.18 v 0 c -0.361,0.086 -0.68,0.198 -0.945,0.315 v 0 c -0.259,0.116 -0.461,0.239 -0.585,0.361 v 0 c -0.127,0.125 -0.175,0.248 -0.131,0.365 v 0 c 0.309,0.773 0.582,1.636 0.817,2.571 v 0 c 0.039,0.163 0.167,0.312 0.369,0.457 v 0 c 0.195,0.151 0.463,0.289 0.775,0.414 v 0 c 0.308,0.128 0.67,0.237 1.053,0.326 v 0 c 0.348,0.079 0.711,0.138 1.086,0.171 v 0 c 0.039,0.005 0.082,0.01 0.125,0.01 v 0 c 2.453,0.185 4.854,0.487 7.214,0.872 v 0 c 0.356,0.059 0.689,0.074 0.98,0.054 v 0 c 0.286,-0.018 0.531,-0.078 0.728,-0.165 v 0 c 0.199,-0.094 0.345,-0.211 0.426,-0.359 v 0 c 0.086,-0.147 0.112,-0.319 0.059,-0.511 v 0 C 23.633,30.623 23.342,29.493 23.03,28.388 v 0 c -0.044,-0.172 -0.159,-0.336 -0.32,-0.504 v 0 C 22.548,27.717 22.336,27.56 22.085,27.418 v 0 C 21.909,27.316 21.714,27.221 21.504,27.14 v 0 C 21.421,27.107 21.33,27.074 21.237,27.049 m 27.562,11.013 c -0.045,-0.005 -0.062,0.027 -0.053,0.09 v 0 c 0.01,0.064 0.047,0.166 0.113,0.3 v 0 c 0.454,0.875 0.909,1.724 1.368,2.548 v 0 c 0.076,0.137 0.178,0.299 0.298,0.466 v 0 c 0.122,0.175 0.254,0.353 0.401,0.531 v 0 c 0.144,0.181 0.292,0.359 0.446,0.526 v 0 c 0.153,0.167 0.298,0.322 0.438,0.457 v 0 c 0.83,0.805 1.66,1.614 2.486,2.428 v 0 c 0.013,0.007 0.026,0.021 0.037,0.028 v 0 c 0.113,0.111 0.21,0.196 0.279,0.252 v 0 c 0.08,0.059 0.133,0.086 0.165,0.086 v 0 c 0.027,-0.003 0.025,-0.035 0.002,-0.104 v 0 c -0.028,-0.064 -0.08,-0.162 -0.16,-0.287 v 0 c -0.49,-0.77 -0.978,-1.568 -1.462,-2.392 v 0 c -0.074,-0.127 -0.171,-0.277 -0.279,-0.439 v 0 c -0.106,-0.158 -0.229,-0.328 -0.355,-0.5 v 0 c -0.131,-0.175 -0.264,-0.346 -0.397,-0.51 v 0 c -0.133,-0.164 -0.264,-0.318 -0.389,-0.458 v 0 c -0.792,-0.866 -1.589,-1.73 -2.392,-2.582 v 0 c -0.029,-0.033 -0.061,-0.064 -0.093,-0.097 v 0 C 49.159,38.312 49.077,38.239 49.01,38.18 v 0 c -0.073,-0.057 -0.131,-0.091 -0.174,-0.107 v 0 C 48.821,38.067 48.81,38.062 48.799,38.062 m -3.427,0.059 c -0.065,0.008 -0.103,0.05 -0.099,0.133 v 0 c -0.002,0.079 0.035,0.196 0.113,0.35 v 0 c 0.507,0.989 1.015,1.944 1.528,2.86 v 0 c 0.083,0.155 0.203,0.32 0.349,0.507 v 0 c 0.142,0.181 0.311,0.371 0.485,0.556 v 0 c 0.181,0.183 0.371,0.363 0.562,0.532 v 0 c 0.177,0.155 0.356,0.3 0.521,0.418 v 0 c 0.013,0.01 0.023,0.019 0.037,0.023 v 0 c 1.062,0.761 2.112,1.546 3.157,2.356 v 0 c 0.164,0.127 0.294,0.214 0.398,0.271 v 0 c 0.101,0.055 0.176,0.076 0.214,0.064 v 0 c 0.043,-0.014 0.049,-0.06 0.026,-0.135 v 0 C 52.64,45.982 52.58,45.867 52.488,45.726 v 0 c -0.556,-0.847 -1.11,-1.73 -1.659,-2.657 v 0 c -0.083,-0.14 -0.193,-0.303 -0.322,-0.476 v 0 c -0.129,-0.171 -0.27,-0.354 -0.427,-0.536 v 0 c -0.152,-0.182 -0.315,-0.364 -0.479,-0.536 v 0 C 49.44,41.352 49.275,41.19 49.122,41.052 v 0 C 48.124,40.176 47.118,39.32 46.095,38.496 v 0 c -0.013,-0.009 -0.024,-0.02 -0.038,-0.025 v 0 c -0.152,-0.123 -0.288,-0.215 -0.404,-0.272 v 0 c -0.035,-0.021 -0.071,-0.037 -0.107,-0.052 v 0 c -0.071,-0.026 -0.131,-0.035 -0.174,-0.026 m 46.095,19.245 c -0.067,0.014 -0.183,0.053 -0.349,0.116 v 0 c -0.166,0.062 -0.374,0.146 -0.623,0.246 v 0 c -1.484,0.606 -2.955,1.124 -4.418,1.525 v 0 c -0.222,0.064 -0.463,0.133 -0.708,0.2 v 0 c -0.243,0.069 -0.489,0.141 -0.724,0.204 v 0 c -0.24,0.065 -0.464,0.129 -0.671,0.186 v 0 c -0.115,0.031 -0.23,0.063 -0.327,0.092 v 0 c -0.07,0.022 -0.136,0.039 -0.195,0.059 v 0 c -0.924,0.286 -1.832,0.515 -2.705,0.688 v 0 c -0.145,0.03 -0.246,0.054 -0.294,0.073 v 0 c -0.056,0.021 -0.062,0.035 -0.025,0.047 v 0 c 0.039,0.012 0.122,0.018 0.247,0.018 v 0 c 0.122,0 0.296,-0.01 0.504,-0.026 v 0 c 1.382,-0.113 2.777,-0.342 4.182,-0.671 v 0 c 0.237,-0.056 0.5,-0.123 0.766,-0.201 v 0 c 0.27,-0.08 0.545,-0.169 0.816,-0.261 v 0 c 0.264,-0.092 0.523,-0.188 0.751,-0.279 v 0 c 0.105,-0.042 0.201,-0.084 0.29,-0.119 v 0 c 0.12,-0.05 0.216,-0.098 0.305,-0.141 v 0 c 0.951,-0.454 1.927,-0.966 2.938,-1.541 v 0 c 0.152,-0.085 0.248,-0.149 0.285,-0.184 v 0 c 0.023,-0.021 0.027,-0.032 0.016,-0.036 v 0 C 91.521,57.357 91.5,57.36 91.467,57.366 M 54.045,43.724 c -0.03,-0.005 -0.035,0.025 -0.012,0.088 v 0 c 0.025,0.062 0.071,0.155 0.147,0.28 v 0 c 0.492,0.812 0.987,1.594 1.484,2.345 v 0 c 0.087,0.126 0.19,0.27 0.306,0.423 v 0 c 0.12,0.153 0.254,0.317 0.385,0.474 v 0 c 0.138,0.16 0.28,0.319 0.417,0.467 v 0 c 0.134,0.147 0.269,0.281 0.387,0.394 v 0 c 0.721,0.697 1.446,1.383 2.177,2.053 v 0 c 0.011,0.012 0.022,0.021 0.034,0.03 v 0 c 0.1,0.089 0.175,0.155 0.235,0.197 v 0 c 0.067,0.05 0.105,0.068 0.118,0.059 v 0 c 0.015,-0.004 0.005,-0.037 -0.032,-0.095 v 0 C 59.652,50.377 59.592,50.293 59.502,50.18 v 0 c -0.533,-0.676 -1.061,-1.382 -1.585,-2.12 v 0 c -0.081,-0.117 -0.179,-0.247 -0.286,-0.387 v 0 C 57.519,47.53 57.401,47.38 57.277,47.228 v 0 c -0.122,-0.152 -0.249,-0.303 -0.37,-0.445 v 0 c -0.124,-0.144 -0.244,-0.279 -0.349,-0.395 v 0 C 55.86,45.634 55.168,44.877 54.476,44.11 v 0 c -0.028,-0.03 -0.055,-0.058 -0.08,-0.085 v 0 c -0.079,-0.084 -0.149,-0.151 -0.2,-0.201 v 0 C 54.135,43.772 54.092,43.741 54.063,43.73 v 0 C 54.06,43.727 54.051,43.724 54.045,43.724 m -2.079,0.039 c -0.041,0.007 -0.049,0.044 -0.028,0.116 v 0 c 0.021,0.073 0.07,0.18 0.158,0.316 v 0 c 0.558,0.907 1.123,1.774 1.685,2.602 v 0 c 0.096,0.14 0.219,0.297 0.359,0.462 v 0 c 0.14,0.169 0.293,0.336 0.458,0.513 v 0 c 0.163,0.17 0.33,0.335 0.493,0.486 v 0 c 0.155,0.146 0.306,0.278 0.444,0.391 v 0 c 0.011,0.01 0.02,0.02 0.027,0.024 v 0 c 0.88,0.711 1.751,1.421 2.632,2.124 v 0 c 0.135,0.107 0.246,0.188 0.323,0.235 v 0 c 0.078,0.044 0.129,0.062 0.151,0.056 v 0 c 0.019,-0.014 0.009,-0.054 -0.033,-0.121 v 0 c -0.04,-0.066 -0.112,-0.164 -0.212,-0.288 v 0 C 57.819,49.936 57.217,49.155 56.62,48.331 v 0 C 56.531,48.205 56.417,48.06 56.289,47.903 v 0 C 56.163,47.75 56.025,47.584 55.881,47.421 v 0 C 55.74,47.258 55.59,47.095 55.447,46.942 v 0 C 55.301,46.787 55.161,46.641 55.03,46.521 v 0 C 54.195,45.727 53.355,44.93 52.513,44.144 v 0 C 52.503,44.133 52.49,44.122 52.479,44.11 v 0 c -0.123,-0.111 -0.233,-0.2 -0.312,-0.256 v 0 c -0.058,-0.039 -0.103,-0.063 -0.138,-0.077 v 0 c -0.027,-0.008 -0.047,-0.013 -0.063,-0.014 m -16.64,-6.167 c -1.781,-0.592 -3.599,-1.099 -5.442,-1.54 v 0 c -0.31,-0.075 -0.598,-0.103 -0.851,-0.089 v 0 c -0.253,0.015 -0.475,0.067 -0.649,0.164 v 0 c -0.174,0.089 -0.304,0.217 -0.373,0.38 v 0 c -0.071,0.155 -0.084,0.35 -0.025,0.564 v 0 c 0.385,1.434 0.774,2.841 1.162,4.198 v 0 c 0.069,0.234 0.2,0.463 0.392,0.681 v 0 c 0.193,0.219 0.433,0.416 0.711,0.591 v 0 c 0.274,0.179 0.583,0.321 0.913,0.433 v 0 c 0.211,0.071 0.428,0.129 0.648,0.168 v 0 c 0.118,0.025 0.237,0.037 0.355,0.05 v 0 c 1.992,0.194 3.956,0.46 5.884,0.836 v 0 c 0.293,0.056 0.547,0.075 0.766,0.056 v 0 c 0.213,-0.016 0.385,-0.067 0.506,-0.153 v 0 c 0.122,-0.083 0.195,-0.192 0.217,-0.334 v 0 c 0.019,-0.142 -0.012,-0.305 -0.104,-0.495 v 0 c -0.542,-1.105 -1.078,-2.271 -1.608,-3.493 v 0 c -0.08,-0.187 -0.21,-0.381 -0.373,-0.573 v 0 c -0.167,-0.197 -0.367,-0.393 -0.593,-0.576 v 0 C 36.639,38.286 36.39,38.11 36.129,37.965 v 0 c -0.219,-0.13 -0.45,-0.24 -0.68,-0.325 v 0 C 35.44,37.637 35.432,37.634 35.427,37.631 v 0 c -0.034,-0.016 -0.065,-0.025 -0.101,-0.035 m 5.202,2.096 c -0.175,-0.028 -0.32,-0.019 -0.426,0.028 v 0 C 40,39.769 39.933,39.857 39.914,39.972 v 0 c -0.019,0.117 0.013,0.268 0.096,0.447 v 0 c 0.558,1.177 1.123,2.297 1.69,3.363 v 0 c 0.093,0.179 0.242,0.367 0.42,0.555 v 0 c 0.183,0.188 0.398,0.375 0.633,0.546 v 0 c 0.234,0.171 0.489,0.327 0.748,0.467 v 0 c 0.173,0.095 0.35,0.178 0.521,0.249 v 0 c 0.083,0.028 0.161,0.059 0.24,0.089 v 0 c 1.463,0.504 2.901,1.085 4.312,1.736 v 0 c 0.216,0.101 0.396,0.165 0.542,0.194 v 0 c 0.14,0.03 0.245,0.024 0.312,-0.012 v 0 c 0.062,-0.037 0.082,-0.105 0.061,-0.208 v 0 C 49.471,47.299 49.407,47.169 49.296,47.01 v 0 c -0.64,-0.936 -1.28,-1.927 -1.917,-2.979 v 0 c -0.095,-0.157 -0.225,-0.332 -0.382,-0.516 v 0 c -0.154,-0.187 -0.333,-0.371 -0.528,-0.557 v 0 C 46.277,42.773 46.07,42.596 45.86,42.434 v 0 C 45.679,42.29 45.487,42.161 45.305,42.051 v 0 c -0.023,-0.018 -0.048,-0.028 -0.071,-0.044 v 0 c -1.342,-0.768 -2.7,-1.473 -4.092,-2.114 v 0 c -0.066,-0.034 -0.13,-0.061 -0.195,-0.086 v 0 c -0.153,-0.056 -0.296,-0.095 -0.419,-0.115 m 8.411,4.811 c -0.059,0.027 -0.084,0.08 -0.066,0.173 v 0 c 0.015,0.09 0.069,0.21 0.166,0.366 v 0 c 0.65,1.024 1.304,1.987 1.959,2.899 v 0 c 0.111,0.158 0.261,0.329 0.429,0.499 v 0 c 0.17,0.177 0.365,0.352 0.568,0.525 v 0 c 0.201,0.168 0.415,0.337 0.625,0.484 v 0 c 0.148,0.106 0.293,0.205 0.438,0.293 v 0 c 0.053,0.034 0.11,0.066 0.161,0.096 v 0 c 1.118,0.64 2.226,1.307 3.335,1.992 v 0 c 0.17,0.104 0.302,0.174 0.406,0.217 v 0 c 0.101,0.038 0.167,0.049 0.196,0.029 v 0 c 0.025,-0.022 0.018,-0.074 -0.023,-0.153 v 0 c -0.046,-0.082 -0.125,-0.189 -0.247,-0.326 v 0 c -0.702,-0.813 -1.401,-1.679 -2.098,-2.599 v 0 c -0.109,-0.141 -0.24,-0.3 -0.39,-0.465 v 0 c -0.146,-0.167 -0.314,-0.342 -0.487,-0.515 v 0 C 53.736,47.843 53.559,47.677 53.379,47.52 v 0 c -0.153,-0.14 -0.307,-0.265 -0.453,-0.376 v 0 c -0.02,-0.018 -0.039,-0.033 -0.06,-0.048 v 0 C 51.81,46.308 50.745,45.542 49.67,44.803 v 0 c -0.181,-0.12 -0.336,-0.208 -0.458,-0.257 v 0 C 49.208,44.545 49.203,44.544 49.195,44.54 v 0 C 49.082,44.498 48.996,44.486 48.939,44.503 M 22.291,34.574 C 22.229,34.563 22.166,34.552 22.104,34.54 v 0 c -2.395,-0.376 -4.82,-0.69 -7.282,-0.938 v 0 c -0.417,-0.038 -0.814,-0.036 -1.167,0.011 v 0 c -0.361,0.046 -0.678,0.128 -0.94,0.246 v 0 c -0.267,0.117 -0.476,0.263 -0.609,0.437 v 0 c -0.133,0.171 -0.192,0.373 -0.16,0.594 v 0 c 0.22,1.505 0.396,3.099 0.541,4.742 v 0 c 0.026,0.287 0.139,0.576 0.325,0.854 v 0 c 0.188,0.283 0.448,0.55 0.759,0.787 v 0 c 0.313,0.24 0.675,0.442 1.071,0.597 v 0 c 0.243,0.099 0.499,0.179 0.765,0.233 v 0 c 0.165,0.033 0.332,0.059 0.498,0.074 v 0 c 2.57,0.242 5.185,0.373 7.805,0.492 v 0 c 0.392,0.016 0.754,-0.021 1.073,-0.102 v 0 c 0.316,-0.081 0.584,-0.204 0.799,-0.359 v 0 c 0.211,-0.153 0.366,-0.336 0.454,-0.551 v 0 c 0.086,-0.208 0.108,-0.437 0.049,-0.685 v 0 C 25.749,39.53 25.411,38.06 25.065,36.564 v 0 c -0.055,-0.222 -0.176,-0.446 -0.35,-0.657 v 0 c -0.173,-0.216 -0.397,-0.418 -0.668,-0.598 v 0 c -0.26,-0.188 -0.566,-0.351 -0.896,-0.479 v 0 c -0.032,-0.012 -0.064,-0.024 -0.098,-0.038 v 0 C 22.809,34.7 22.551,34.626 22.291,34.574 m 36.348,14.071 c -0.02,-0.003 -0.01,0.031 0.023,0.085 v 0 c 0.029,0.062 0.086,0.145 0.169,0.254 v 0 c 0.533,0.722 1.068,1.403 1.61,2.057 v 0 c 0.092,0.106 0.201,0.231 0.321,0.358 v 0 c 0.119,0.129 0.25,0.267 0.382,0.396 v 0 c 0.135,0.136 0.27,0.264 0.402,0.386 v 0 c 0.127,0.117 0.25,0.225 0.361,0.314 v 0 c 0.658,0.541 1.321,1.07 1.998,1.565 v 0 c 0.009,0.009 0.023,0.017 0.033,0.026 v 0 c 0.089,0.066 0.161,0.11 0.207,0.139 v 0 c 0.054,0.034 0.083,0.044 0.087,0.033 v 0 c 0.004,-0.009 -0.02,-0.043 -0.063,-0.091 v 0 c -0.048,-0.05 -0.12,-0.122 -0.215,-0.216 v 0 C 63.373,53.399 62.799,52.81 62.232,52.187 v 0 c -0.087,-0.099 -0.19,-0.205 -0.303,-0.324 v 0 c -0.111,-0.121 -0.233,-0.244 -0.352,-0.368 v 0 c -0.125,-0.126 -0.245,-0.25 -0.363,-0.368 v 0 C 61.097,51.01 60.985,50.902 60.883,50.806 v 0 c -0.637,-0.604 -1.265,-1.223 -1.89,-1.859 v 0 C 58.969,48.924 58.946,48.9 58.922,48.879 v 0 c -0.069,-0.07 -0.128,-0.125 -0.172,-0.165 v 0 c -0.043,-0.037 -0.077,-0.059 -0.098,-0.067 v 0 c -0.004,-0.002 -0.01,-0.005 -0.013,-0.002 m -1.148,0.272 c -0.017,0.008 -0.014,0.047 0.021,0.108 v 0 c 0.032,0.066 0.1,0.162 0.19,0.281 v 0 c 0.607,0.801 1.219,1.561 1.834,2.277 v 0 c 0.102,0.115 0.229,0.252 0.366,0.393 v 0 c 0.142,0.145 0.292,0.288 0.444,0.43 v 0 c 0.158,0.144 0.316,0.284 0.466,0.408 v 0 c 0.142,0.119 0.274,0.224 0.396,0.313 v 0 c 0.01,0.011 0.02,0.017 0.027,0.023 v 0 c 0.771,0.573 1.544,1.121 2.331,1.647 v 0 c 0.124,0.079 0.22,0.139 0.281,0.168 v 0 c 0.063,0.033 0.101,0.043 0.106,0.029 v 0 c 0.005,-0.014 -0.021,-0.05 -0.074,-0.105 v 0 C 63.83,54.83 63.748,54.754 63.637,54.65 v 0 c -0.66,-0.601 -1.316,-1.247 -1.961,-1.938 v 0 C 61.579,52.606 61.459,52.484 61.33,52.353 v 0 c -0.124,-0.126 -0.263,-0.264 -0.404,-0.397 v 0 C 60.787,51.818 60.644,51.685 60.51,51.558 v 0 c -0.133,-0.126 -0.263,-0.241 -0.379,-0.344 v 0 c -0.739,-0.642 -1.479,-1.307 -2.206,-1.979 v 0 C 57.914,49.226 57.907,49.217 57.894,49.21 v 0 c -0.108,-0.1 -0.193,-0.173 -0.261,-0.221 v 0 c -0.046,-0.035 -0.085,-0.057 -0.108,-0.066 v 0 c -0.017,-0.006 -0.027,-0.008 -0.034,-0.006 m 27.387,11.566 c -0.05,-0.006 -0.151,0.001 -0.294,0.022 v 0 c -0.152,0.022 -0.343,0.055 -0.579,0.099 v 0 c -1.38,0.253 -2.759,0.403 -4.115,0.436 v 0 c -0.209,0.006 -0.433,0.015 -0.67,0.022 v 0 c -0.229,0.008 -0.47,0.013 -0.702,0.019 v 0 c -0.228,0.006 -0.451,0.011 -0.658,0.018 v 0 c -0.106,0.005 -0.214,0.005 -0.31,0.009 v 0 c -0.081,0.006 -0.154,0.007 -0.221,0.013 v 0 c -0.98,0.049 -1.921,0.039 -2.844,-0.022 v 0 C 74.33,61.088 74.221,61.083 74.159,61.09 v 0 c -0.064,0.005 -0.09,0.02 -0.068,0.041 v 0 c 0.022,0.023 0.089,0.051 0.194,0.088 v 0 c 0.113,0.032 0.259,0.074 0.456,0.113 v 0 c 1.276,0.272 2.562,0.433 3.847,0.487 v 0 c 0.224,0.012 0.465,0.012 0.723,0.009 v 0 c 0.254,-0.008 0.521,-0.023 0.784,-0.045 v 0 c 0.26,-0.022 0.515,-0.052 0.747,-0.087 v 0 c 0.092,-0.015 0.181,-0.028 0.268,-0.044 v 0 c 0.127,-0.022 0.238,-0.046 0.344,-0.071 v 0 c 0.996,-0.229 2.031,-0.531 3.1,-0.903 v 0 c 0.165,-0.058 0.275,-0.105 0.33,-0.139 v 0 c 0.037,-0.025 0.05,-0.042 0.025,-0.051 v 0 C 84.903,60.484 84.894,60.483 84.878,60.483 M 55.9,49.525 c -0.028,0.015 -0.024,0.062 0.009,0.137 v 0 c 0.038,0.077 0.111,0.187 0.215,0.32 v 0 c 0.705,0.89 1.421,1.729 2.135,2.515 v 0 c 0.12,0.131 0.269,0.277 0.431,0.429 v 0 c 0.169,0.156 0.351,0.309 0.534,0.458 v 0 c 0.184,0.151 0.375,0.297 0.558,0.429 v 0 c 0.13,0.095 0.261,0.18 0.376,0.256 v 0 c 0.045,0.03 0.089,0.06 0.137,0.086 v 0 c 0.926,0.572 1.856,1.13 2.8,1.666 v 0 c 0.147,0.084 0.259,0.142 0.333,0.17 v 0 c 0.077,0.029 0.121,0.034 0.13,0.016 v 0 c 0.006,-0.02 -0.022,-0.062 -0.083,-0.125 v 0 C 63.412,55.815 63.319,55.73 63.192,55.617 v 0 C 62.426,54.961 61.671,54.25 60.916,53.481 v 0 C 60.804,53.361 60.668,53.23 60.518,53.09 v 0 c -0.147,-0.142 -0.31,-0.288 -0.471,-0.432 v 0 c -0.164,-0.146 -0.329,-0.29 -0.493,-0.428 v 0 c -0.146,-0.121 -0.289,-0.239 -0.419,-0.339 v 0 c -0.007,-0.005 -0.017,-0.013 -0.028,-0.02 v 0 c -0.895,-0.675 -1.783,-1.362 -2.665,-2.05 v 0 c -0.149,-0.109 -0.27,-0.193 -0.359,-0.24 v 0 c -0.036,-0.019 -0.062,-0.033 -0.089,-0.044 v 0 C 55.953,49.521 55.92,49.519 55.9,49.525 m 26.08,10.611 c -0.042,-0.005 -0.122,-0.006 -0.246,0.005 v 0 c -0.123,0.008 -0.276,0.021 -0.473,0.042 v 0 c -1.155,0.118 -2.309,0.151 -3.434,0.095 v 0 C 77.653,60.269 77.465,60.26 77.265,60.249 v 0 C 77.07,60.24 76.867,60.23 76.673,60.222 v 0 C 76.478,60.211 76.289,60.2 76.114,60.189 v 0 C 75.988,60.18 75.867,60.174 75.762,60.168 v 0 c -0.037,-0.003 -0.073,-0.004 -0.106,-0.005 v 0 C 74.822,60.13 74.018,60.051 73.224,59.925 v 0 c -0.13,-0.021 -0.222,-0.031 -0.28,-0.036 v 0 c -0.058,0.002 -0.076,0.007 -0.059,0.025 v 0 c 0.016,0.019 0.07,0.042 0.158,0.078 v 0 c 0.091,0.033 0.218,0.075 0.379,0.118 v 0 c 1.06,0.296 2.137,0.501 3.223,0.626 v 0 c 0.183,0.021 0.39,0.041 0.601,0.049 v 0 c 0.213,0.014 0.438,0.02 0.657,0.02 v 0 c 0.219,0 0.432,-0.006 0.63,-0.019 v 0 c 0.12,-0.005 0.23,-0.013 0.333,-0.024 v 0 c 0.063,-0.006 0.124,-0.011 0.179,-0.021 v 0 c 0.857,-0.107 1.739,-0.267 2.643,-0.481 v 0 c 0.137,-0.033 0.232,-0.062 0.279,-0.081 v 0 c 0.041,-0.018 0.047,-0.031 0.029,-0.037 v 0 C 81.998,60.14 81.988,60.135 81.98,60.136 M 62.378,53.135 c -0.006,0.012 0.011,0.043 0.054,0.1 v 0 c 0.044,0.058 0.118,0.139 0.22,0.242 v 0 c 0.657,0.659 1.324,1.277 1.993,1.844 v 0 c 0.112,0.098 0.245,0.2 0.387,0.307 v 0 c 0.142,0.108 0.295,0.22 0.451,0.325 v 0 c 0.154,0.106 0.306,0.208 0.452,0.298 v 0 c 0.136,0.085 0.264,0.161 0.377,0.222 v 0 c 0.009,0.005 0.018,0.011 0.021,0.015 v 0 c 0.711,0.391 1.435,0.751 2.17,1.076 v 0 c 0.116,0.05 0.201,0.083 0.256,0.099 v 0 c 0.054,0.016 0.073,0.017 0.069,0.005 v 0 c -0.003,-0.015 -0.039,-0.046 -0.105,-0.085 v 0 C 68.658,57.536 68.566,57.481 68.45,57.41 v 0 c -0.725,-0.433 -1.434,-0.913 -2.132,-1.442 v 0 c -0.109,-0.08 -0.234,-0.173 -0.367,-0.271 v 0 c -0.133,-0.098 -0.27,-0.2 -0.412,-0.302 v 0 C 65.4,55.296 65.26,55.194 65.129,55.099 v 0 c -0.13,-0.093 -0.258,-0.185 -0.362,-0.252 v 0 c -0.69,-0.469 -1.362,-0.963 -2.029,-1.481 v 0 c -0.012,-0.007 -0.02,-0.015 -0.029,-0.021 v 0 c -0.097,-0.077 -0.173,-0.131 -0.228,-0.166 v 0 c -0.031,-0.02 -0.06,-0.033 -0.076,-0.039 v 0 C 62.391,53.132 62.383,53.132 62.378,53.135 M 45.192,47.183 c -0.251,-0.08 -0.467,-0.119 -0.648,-0.116 v 0 c -0.182,10e-4 -0.322,0.037 -0.421,0.112 v 0 c -0.1,0.068 -0.15,0.172 -0.152,0.309 v 0 c 0.002,0.129 0.053,0.285 0.169,0.465 v 0 c 0.77,1.196 1.547,2.293 2.326,3.305 v 0 c 0.137,0.17 0.32,0.341 0.543,0.51 v 0 c 0.221,0.162 0.475,0.318 0.748,0.454 v 0 c 0.276,0.146 0.562,0.268 0.85,0.37 v 0 c 0.135,0.047 0.265,0.089 0.399,0.123 v 0 c 0.147,0.042 0.291,0.079 0.434,0.107 v 0 c 1.546,0.295 3.062,0.698 4.559,1.184 v 0 c 0.232,0.076 0.411,0.114 0.549,0.127 v 0 c 0.139,0.01 0.233,-0.008 0.279,-0.056 v 0 c 0.047,-0.045 0.046,-0.118 -0.002,-0.218 v 0 c -0.045,-0.098 -0.14,-0.222 -0.284,-0.371 v 0 C 53.7,52.617 52.856,51.671 52.017,50.646 v 0 c -0.131,-0.155 -0.291,-0.323 -0.479,-0.497 v 0 c -0.185,-0.168 -0.394,-0.345 -0.611,-0.51 v 0 c -0.223,-0.167 -0.454,-0.329 -0.686,-0.47 v 0 C 50.094,49.077 49.939,48.99 49.79,48.916 v 0 C 49.714,48.878 49.636,48.84 49.563,48.809 v 0 C 49.004,48.567 48.446,48.34 47.88,48.121 v 0 c -0.884,-0.343 -1.781,-0.656 -2.688,-0.938 m 16.572,6.705 c -0.011,0.013 0.007,0.055 0.059,0.117 v 0 c 0.052,0.065 0.134,0.153 0.251,0.27 v 0 c 0.764,0.73 1.534,1.406 2.308,2.022 v 0 c 0.136,0.107 0.289,0.218 0.454,0.335 v 0 c 0.164,0.116 0.346,0.234 0.524,0.345 v 0 c 0.182,0.111 0.363,0.219 0.536,0.314 v 0 c 0.128,0.071 0.25,0.134 0.368,0.19 v 0 c 0.035,0.019 0.065,0.033 0.101,0.05 v 0 c 0.825,0.389 1.666,0.743 2.522,1.059 v 0 c 0.136,0.052 0.234,0.081 0.295,0.094 v 0 c 0.062,0.014 0.091,0.012 0.078,-0.009 v 0 c -0.003,-0.016 -0.044,-0.051 -0.123,-0.099 v 0 C 69.063,58.534 68.954,58.47 68.816,58.393 v 0 C 67.984,57.94 67.162,57.426 66.348,56.847 v 0 c -0.125,-0.088 -0.271,-0.188 -0.42,-0.289 v 0 c -0.156,-0.106 -0.316,-0.215 -0.476,-0.323 v 0 C 65.288,56.128 65.126,56.02 64.978,55.922 v 0 c -0.135,-0.086 -0.26,-0.167 -0.373,-0.235 v 0 c -0.014,-0.01 -0.032,-0.021 -0.05,-0.031 v 0 C 63.76,55.169 62.968,54.65 62.188,54.112 v 0 c -0.131,-0.091 -0.234,-0.152 -0.3,-0.19 v 0 C 61.864,53.91 61.844,53.9 61.826,53.893 v 0 C 61.792,53.879 61.77,53.877 61.764,53.888 m -7.975,-2.98 C 53.67,50.874 53.578,50.871 53.535,50.906 v 0 c -0.042,0.035 -0.052,0.098 -0.014,0.193 v 0 c 0.04,0.096 0.119,0.218 0.244,0.365 v 0 c 0.855,0.991 1.71,1.905 2.566,2.749 v 0 c 0.143,0.143 0.326,0.297 0.528,0.452 v 0 c 0.205,0.151 0.432,0.307 0.663,0.456 v 0 c 0.233,0.146 0.473,0.287 0.703,0.407 v 0 c 0.118,0.062 0.23,0.119 0.342,0.175 v 0 c 0.106,0.05 0.208,0.095 0.306,0.135 v 0 c 1.166,0.488 2.329,0.994 3.503,1.497 v 0 c 0.18,0.076 0.319,0.126 0.416,0.146 v 0 c 0.093,0.021 0.147,0.017 0.16,-0.012 v 0 c 0.011,-0.028 -0.016,-0.08 -0.087,-0.154 v 0 C 62.794,57.238 62.681,57.14 62.529,57.02 v 0 c -0.9,-0.707 -1.799,-1.483 -2.699,-2.337 v 0 c -0.137,-0.13 -0.303,-0.273 -0.479,-0.421 v 0 C 59.174,54.113 58.98,53.956 58.782,53.807 v 0 c -0.197,-0.153 -0.4,-0.301 -0.597,-0.436 v 0 c -0.131,-0.095 -0.263,-0.179 -0.383,-0.257 v 0 c -0.061,-0.035 -0.117,-0.069 -0.173,-0.103 v 0 c -1.12,-0.651 -2.244,-1.292 -3.371,-1.906 v 0 c -0.125,-0.063 -0.233,-0.118 -0.331,-0.156 v 0 C 53.875,50.932 53.83,50.918 53.789,50.908 M 39.225,45.797 C 39.109,45.773 38.99,45.743 38.876,45.73 v 0 c -1.972,-0.307 -3.983,-0.487 -6.017,-0.591 v 0 c -0.348,-0.015 -0.666,0.019 -0.939,0.098 v 0 c -0.279,0.075 -0.519,0.193 -0.702,0.349 v 0 c -0.191,0.156 -0.32,0.346 -0.387,0.555 v 0 c -0.063,0.218 -0.065,0.454 0.017,0.703 v 0 c 0.55,1.667 1.11,3.227 1.688,4.672 v 0 c 0.104,0.256 0.284,0.479 0.518,0.672 v 0 c 0.242,0.193 0.537,0.345 0.869,0.459 v 0 c 0.335,0.111 0.707,0.183 1.087,0.21 v 0 c 0.157,0.012 0.315,0.017 0.472,0.01 v 0 c 0.231,-0.004 0.461,-0.024 0.688,-0.059 v 0 c 2.235,-0.361 4.421,-0.572 6.559,-0.59 v 0 c 0.321,-0.002 0.6,-0.039 0.823,-0.104 v 0 c 0.22,-0.064 0.386,-0.153 0.5,-0.263 v 0 c 0.116,-0.107 0.167,-0.242 0.164,-0.395 v 0 c -0.003,-0.15 -0.066,-0.318 -0.2,-0.501 v 0 c -0.751,-1.058 -1.5,-2.22 -2.245,-3.478 v 0 C 41.66,47.29 41.5,47.096 41.3,46.914 v 0 c -0.2,-0.182 -0.439,-0.357 -0.697,-0.519 v 0 c -0.261,-0.163 -0.54,-0.304 -0.836,-0.423 v 0 C 39.589,45.905 39.41,45.846 39.225,45.797 M 74.441,59.828 C 74.353,59.805 74.23,59.771 74.077,59.736 v 0 c -0.905,-0.222 -1.801,-0.506 -2.681,-0.86 v 0 C 71.26,58.821 71.107,58.762 70.947,58.7 v 0 c -0.159,-0.063 -0.327,-0.132 -0.49,-0.196 v 0 c -0.164,-0.063 -0.326,-0.132 -0.475,-0.188 v 0 c -0.137,-0.055 -0.265,-0.104 -0.373,-0.145 v 0 c -0.012,-0.005 -0.018,-0.008 -0.03,-0.013 v 0 c -0.748,-0.282 -1.484,-0.604 -2.208,-0.955 v 0 c -0.119,-0.057 -0.208,-0.099 -0.268,-0.119 v 0 c -0.057,-0.021 -0.087,-0.023 -0.087,-0.01 v 0 c 0.005,0.018 0.037,0.05 0.1,0.101 v 0 c 0.066,0.05 0.158,0.117 0.285,0.197 v 0 c 0.826,0.535 1.665,1.007 2.509,1.412 v 0 c 0.146,0.07 0.311,0.143 0.485,0.215 v 0 c 0.17,0.07 0.352,0.14 0.535,0.204 v 0 c 0.183,0.062 0.362,0.122 0.531,0.171 v 0 c 0.124,0.038 0.24,0.068 0.347,0.095 v 0 c 0.033,0.008 0.069,0.02 0.098,0.023 v 0 c 0.779,0.178 1.57,0.312 2.385,0.401 v 0 c 0.129,0.018 0.216,0.022 0.268,0.018 v 0 c 0.049,-0.001 0.063,-0.01 0.043,-0.024 v 0 C 74.593,59.884 74.58,59.874 74.559,59.866 v 0 C 74.53,59.855 74.49,59.844 74.441,59.828 M 60.884,55.014 c -0.016,0.021 0.01,0.073 0.065,0.146 v 0 c 0.057,0.073 0.158,0.177 0.292,0.299 v 0 c 0.916,0.812 1.825,1.548 2.739,2.215 v 0 c 0.158,0.113 0.338,0.235 0.539,0.357 v 0 c 0.199,0.121 0.414,0.243 0.628,0.358 v 0 c 0.217,0.114 0.438,0.226 0.64,0.317 v 0 c 0.109,0.05 0.218,0.097 0.322,0.14 v 0 c 0.084,0.034 0.165,0.064 0.243,0.096 v 0 c 0.985,0.363 1.984,0.698 3.015,0.986 v 0 c 0.156,0.044 0.271,0.066 0.344,0.076 v 0 c 0.072,0.008 0.103,-0.004 0.095,-0.025 v 0 c -0.013,-0.024 -0.062,-0.061 -0.149,-0.111 v 0 c -0.089,-0.054 -0.217,-0.121 -0.38,-0.199 v 0 c -0.979,-0.477 -1.949,-1.026 -2.912,-1.655 v 0 c -0.147,-0.096 -0.316,-0.203 -0.5,-0.318 v 0 C 65.69,57.588 65.497,57.473 65.309,57.363 v 0 c -0.192,-0.114 -0.382,-0.229 -0.561,-0.33 v 0 c -0.124,-0.072 -0.245,-0.137 -0.354,-0.196 v 0 c -0.049,-0.028 -0.096,-0.051 -0.141,-0.075 v 0 c -0.959,-0.494 -1.904,-1.015 -2.844,-1.55 v 0 c -0.155,-0.086 -0.277,-0.149 -0.365,-0.183 v 0 c -0.086,-0.032 -0.139,-0.038 -0.16,-0.015 m 14.976,5.791 c -0.107,-0.022 -0.248,-0.051 -0.433,-0.084 v 0 c -1.061,-0.184 -2.12,-0.453 -3.164,-0.81 v 0 C 72.106,59.857 71.923,59.8 71.74,59.739 v 0 c -0.191,-0.064 -0.383,-0.128 -0.571,-0.19 v 0 c -0.193,-0.064 -0.383,-0.127 -0.552,-0.183 v 0 c -0.127,-0.041 -0.244,-0.079 -0.35,-0.113 v 0 C 70.223,59.24 70.182,59.229 70.144,59.216 v 0 C 69.267,58.954 68.41,58.645 67.569,58.302 v 0 C 67.432,58.245 67.327,58.209 67.256,58.19 v 0 c -0.067,-0.021 -0.101,-0.017 -0.097,0.003 v 0 c 0.003,0.019 0.039,0.06 0.115,0.119 v 0 c 0.075,0.052 0.187,0.128 0.334,0.214 v 0 c 0.981,0.579 1.968,1.076 2.966,1.494 v 0 c 0.164,0.07 0.357,0.145 0.564,0.215 v 0 c 0.201,0.073 0.416,0.14 0.633,0.197 v 0 c 0.216,0.062 0.426,0.116 0.623,0.156 v 0 c 0.114,0.026 0.223,0.047 0.319,0.066 v 0 c 0.078,0.012 0.147,0.023 0.21,0.034 v 0 c 0.901,0.127 1.828,0.205 2.781,0.225 v 0 c 0.145,0.005 0.251,0.002 0.308,-0.008 v 0 c 0.061,-0.008 0.072,-0.023 0.044,-0.039 v 0 c -0.007,-0.005 -0.017,-0.012 -0.032,-0.018 v 0 C 75.988,60.835 75.932,60.821 75.86,60.805 m 1.807,1.207 c -0.124,-0.02 -0.298,-0.044 -0.509,-0.066 v 0 c -1.266,-0.135 -2.526,-0.371 -3.784,-0.724 v 0 c -0.188,-0.051 -0.403,-0.107 -0.628,-0.167 v 0 C 72.528,60.998 72.298,60.938 72.07,60.877 v 0 C 71.844,60.82 71.623,60.764 71.415,60.711 v 0 c -0.106,-0.027 -0.211,-0.052 -0.306,-0.074 v 0 c -0.088,-0.02 -0.171,-0.039 -0.249,-0.058 v 0 C 69.814,60.36 68.794,60.08 67.794,59.772 v 0 c -0.172,-0.054 -0.293,-0.086 -0.379,-0.098 v 0 c -0.083,-0.012 -0.123,-0.003 -0.12,0.028 v 0 c 0.001,0.026 0.045,0.073 0.134,0.141 v 0 c 0.09,0.061 0.223,0.141 0.4,0.236 v 0 c 1.185,0.625 2.366,1.146 3.543,1.57 v 0 c 0.199,0.071 0.428,0.146 0.677,0.214 v 0 c 0.238,0.065 0.499,0.13 0.757,0.183 v 0 c 0.254,0.054 0.508,0.096 0.746,0.129 v 0 c 0.084,0.013 0.169,0.021 0.249,0.03 v 0 c 0.139,0.015 0.269,0.025 0.384,0.032 v 0 c 1.068,0.05 2.171,0.043 3.312,-0.044 v 0 c 0.17,-0.016 0.292,-0.032 0.361,-0.053 v 0 c 0.07,-0.018 0.086,-0.041 0.052,-0.065 v 0 C 77.903,62.07 77.89,62.065 77.876,62.06 v 0 c -0.042,-0.014 -0.112,-0.032 -0.209,-0.048 m -17.915,-5.17 c -0.117,-0.019 -0.189,-0.006 -0.213,0.036 v 0 c -0.027,0.037 -0.006,0.102 0.058,0.191 v 0 c 0.069,0.089 0.188,0.202 0.354,0.333 v 0 c 1.125,0.885 2.24,1.661 3.334,2.354 v 0 c 0.19,0.12 0.413,0.243 0.658,0.364 v 0 c 0.245,0.122 0.511,0.242 0.775,0.352 v 0 c 0.268,0.105 0.535,0.206 0.791,0.289 v 0 c 0.079,0.026 0.155,0.053 0.233,0.073 v 0 c 0.164,0.052 0.322,0.095 0.462,0.126 v 0 c 1.209,0.283 2.435,0.552 3.696,0.778 v 0 c 0.193,0.032 0.332,0.046 0.425,0.044 v 0 c 0.09,-0.003 0.127,-0.022 0.117,-0.055 v 0 c -0.01,-0.032 -0.073,-0.079 -0.175,-0.138 v 0 c -0.106,-0.058 -0.26,-0.128 -0.457,-0.213 v 0 c -1.152,-0.494 -2.318,-1.077 -3.487,-1.761 v 0 c -0.174,-0.104 -0.379,-0.22 -0.598,-0.332 v 0 C 65.513,59.17 65.281,59.052 65.052,58.936 v 0 C 64.823,58.82 64.589,58.709 64.372,58.61 v 0 c -0.107,-0.048 -0.213,-0.096 -0.31,-0.138 v 0 c -0.104,-0.045 -0.205,-0.086 -0.296,-0.121 v 0 c -0.64,-0.245 -1.271,-0.491 -1.905,-0.738 v 0 c -0.548,-0.212 -1.093,-0.426 -1.637,-0.635 v 0 c -0.2,-0.076 -0.358,-0.121 -0.472,-0.136 m -4.44,-1.57 C 53.804,54.821 52.272,54.455 50.714,54.2 v 0 c -0.266,-0.046 -0.491,-0.05 -0.67,-0.023 v 0 c -0.18,0.025 -0.312,0.086 -0.389,0.171 v 0 c -0.085,0.087 -0.112,0.197 -0.08,0.33 v 0 c 0.037,0.13 0.126,0.281 0.287,0.44 v 0 c 1.086,1.08 2.158,2.024 3.216,2.861 v 0 c 0.187,0.148 0.424,0.287 0.694,0.415 v 0 c 0.27,0.127 0.57,0.24 0.883,0.344 v 0 c 0.31,0.097 0.631,0.179 0.944,0.248 v 0 c 0.077,0.013 0.154,0.028 0.225,0.04 v 0 c 0.232,0.044 0.451,0.072 0.658,0.091 v 0 c 1.57,0.129 3.128,0.378 4.681,0.693 v 0 c 0.232,0.047 0.412,0.068 0.539,0.066 v 0 c 0.125,-0.003 0.201,-0.028 0.223,-0.075 v 0 c 0.025,-0.051 -0.009,-0.12 -0.089,-0.207 v 0 c -0.082,-0.088 -0.22,-0.195 -0.407,-0.324 v 0 c -1.083,-0.729 -2.188,-1.544 -3.303,-2.464 v 0 c -0.169,-0.138 -0.371,-0.285 -0.597,-0.433 v 0 c -0.22,-0.146 -0.468,-0.296 -0.72,-0.436 v 0 c -0.25,-0.141 -0.511,-0.273 -0.763,-0.385 v 0 c -0.108,-0.05 -0.219,-0.098 -0.326,-0.139 v 0 C 55.71,55.408 55.698,55.405 55.684,55.4 v 0 c -0.128,-0.048 -0.25,-0.09 -0.372,-0.128 M 25.337,45.186 C 25.125,45.13 24.903,45.085 24.676,45.063 v 0 c -0.168,-0.02 -0.339,-0.031 -0.511,-0.028 v 0 c -2.699,0.011 -5.388,0.011 -8.012,-0.144 v 0 c -0.452,-0.025 -0.878,0.01 -1.264,0.107 v 0 c -0.392,0.092 -0.736,0.24 -1.024,0.443 v 0 c -0.292,0.204 -0.525,0.456 -0.681,0.75 v 0 c -0.16,0.299 -0.239,0.641 -0.222,1.011 v 0 c 0.116,2.532 0.2,5.104 0.276,7.649 v 0 c 0.013,0.449 0.13,0.878 0.334,1.25 v 0 c 0.202,0.379 0.494,0.704 0.847,0.954 v 0 c 0.36,0.248 0.783,0.419 1.244,0.496 v 0 c 0.16,0.025 0.321,0.04 0.486,0.042 v 0 c 0.323,0.008 0.659,-0.023 1.006,-0.101 v 0 c 2.999,-0.679 6.11,-1.586 9.229,-2.44 v 0 c 0.467,-0.127 0.887,-0.308 1.249,-0.524 v 0 c 0.364,-0.215 0.669,-0.461 0.904,-0.722 v 0 c 0.229,-0.263 0.392,-0.541 0.479,-0.821 v 0 c 0.081,-0.279 0.08,-0.566 -0.004,-0.851 v 0 c -0.503,-1.613 -0.985,-3.338 -1.464,-5.162 v 0 c -0.07,-0.271 -0.214,-0.526 -0.42,-0.754 v 0 c -0.208,-0.234 -0.467,-0.44 -0.774,-0.616 v 0 c -0.175,-0.099 -0.369,-0.191 -0.57,-0.27 v 0 c -0.143,-0.055 -0.292,-0.103 -0.447,-0.146 m 20.54,8.961 c -0.305,-0.113 -0.628,-0.204 -0.962,-0.264 v 0 c -0.129,-0.021 -0.26,-0.043 -0.384,-0.056 v 0 c -0.207,-0.021 -0.412,-0.026 -0.608,-0.016 v 0 c -2.177,0.105 -4.41,0.42 -6.695,0.921 v 0 c -0.394,0.079 -0.749,0.217 -1.05,0.386 v 0 c -0.306,0.174 -0.559,0.383 -0.746,0.613 v 0 c -0.193,0.229 -0.314,0.485 -0.359,0.738 v 0 c -0.048,0.26 -0.011,0.516 0.119,0.757 v 0 c 0.899,1.64 1.825,3.051 2.762,4.267 v 0 c 0.169,0.219 0.421,0.378 0.74,0.474 v 0 c 0.318,0.106 0.697,0.15 1.109,0.14 v 0 c 0.412,-0.01 0.855,-0.069 1.302,-0.172 v 0 c 0.076,-0.017 0.155,-0.035 0.23,-0.052 v 0 c 0.369,-0.099 0.737,-0.221 1.091,-0.369 v 0 c 2.435,-1.015 4.791,-1.717 7.079,-2.107 v 0 c 0.336,-0.058 0.618,-0.137 0.835,-0.228 v 0 c 0.21,-0.096 0.366,-0.203 0.452,-0.324 v 0 c 0.087,-0.117 0.11,-0.248 0.063,-0.389 v 0 c -0.045,-0.14 -0.158,-0.284 -0.34,-0.438 v 0 c -1.049,-0.87 -2.114,-1.859 -3.181,-3.002 v 0 c -0.16,-0.167 -0.37,-0.331 -0.619,-0.479 v 0 C 46.483,54.409 46.216,54.279 45.93,54.168 v 0 c -0.016,-0.007 -0.034,-0.014 -0.053,-0.021 m -16.556,2.752 c -1.318,0.204 -3.558,0.982 -4.859,1.455 v 0 c -2.883,1.053 -5.716,1.703 -8.515,3.637 v 0 c -0.473,0.332 -0.897,0.725 -1.25,1.171 v 0 c -0.355,0.446 -0.64,0.943 -0.834,1.461 v 0 C 13.668,65.148 13.567,65.7 13.59,66.23 v 0 c 0.133,3.734 0.31,7.255 0.554,10.488 v 0 c 0.044,0.587 0.229,1.043 0.523,1.352 v 0 c 0.303,0.314 0.72,0.473 1.222,0.47 v 0 c 0.5,0 1.085,-0.156 1.715,-0.459 v 0 c 0.051,-0.024 0.107,-0.051 0.154,-0.078 v 0 c 0.59,-0.296 1.208,-0.711 1.833,-1.226 v 0 c 3.844,-3.152 7.745,-6.241 11.564,-8.878 v 0 c 0.558,-0.383 1.047,-0.793 1.458,-1.198 v 0 c 0.409,-0.406 0.74,-0.807 0.975,-1.186 v 0 c 0.238,-0.379 0.391,-0.74 0.437,-1.067 v 0 c 0.052,-0.323 0.006,-0.618 -0.149,-0.875 v 0 c -0.866,-1.422 -1.71,-3.067 -2.519,-4.966 v 0 c -0.289,-0.67 -0.678,-1.391 -1.314,-1.636 v 0 C 29.832,56.89 29.592,56.859 29.321,56.899" />
          </defs>
          <use
             xlink:href="#a"
             overflow="visible"
             id="use1"
             style="fill:url(#linearGradient4)" />
          <clipPath
             id="clipPath2">
            <use
               xlink:href="#a"
               overflow="visible"
               id="use2" />
          </clipPath>
        </g>
      </g>
    </g>
    <g
       id="SvgjsG1173"
       featureKey="nameFeature-0"
       transform="matrix(0.77612753,0,0,0.77612753,133.43325,19.169386)"
       fill="#ffffff">
      <path
         d="M 2.0508,40 H 7.6367 V 12.09 H 2.0508 Z M 40.937562,12.09 v 21.172 l -21.172,-21.172 h -6.7383 V 40 h 5.5859 V 18.828 L 39.785162,40 h 6.7383 V 12.09 Z m 10.976519,0 V 40 h 5.5859 V 28.828 h 27.91 v -5.5859 h -27.91 v -5.5859 h 27.91 v -5.5664 h -33.496 z M 118.711,28.828 q 0,2.304687 -1.62109,3.945313 -1.64063,1.640625 -3.94532,1.640625 H 96.386594 v -11.172 q 0,-2.304688 1.640625,-3.945313 1.640625,-1.640625 3.945301,-1.6406 h 16.738 v 11.172 z M 90.8008,40 h 22.344 q 4.60938,0 7.89063,-3.28125 3.26171,-3.261719 3.26171,-7.890625 v -16.738 h -22.324 q -4.628902,0 -7.890621,3.261719 -3.28125,3.28125 -3.28125,7.890625 v 16.758 z m 44.47262,-22.344 h 21.855 q -0.87891,2.480469 -3.00781,4.023437 -2.1875,1.5625 -4.88282,1.5625 h -13.965 v -5.5859 z M 129.68752,40 h 5.5859 V 28.828 h 13.965 q 3.45703,0 5.91797,2.460937 2.4414,2.460938 2.4414,5.917969 v 2.793 h 5.5859 v -2.793 q 0,-3.359375 -1.52343,-6.328125 -1.46485,-2.890625 -4.0625,-4.84375 2.59765,-1.953125 4.0625,-4.824218 1.52343,-2.96875 1.52343,-6.347657 v -2.7734 h -33.496 v 27.91 z m 78.59392,-27.91 -15.977,18.105 -15.977,-18.105 h -7.7539 V 40 h 5.5859 V 18.066 l 18.145,20.566 18.145,-20.566 V 40 h 5.5859 V 12.09 Z m 18.73026,13.945 v -8.3789 h 16.758 q 2.30469,0 3.94531,1.640625 1.6211,1.640625 1.6211,3.945313 v 2.793 h -22.324 z M 221.4258,12.09 V 40 h 5.5859 v -8.3789 h 22.324 V 40 h 5.5859 V 23.242 q 0,-4.609375 -3.26172,-7.890625 -3.28125,-3.261719 -7.89062,-3.261719 h -22.344 z m 38.88672,0 v 5.5664 h 13.027 v 22.344 h 5.5859 v -22.344 h 13.027 V 12.09 h -31.641 z M 297.34377,40 h 5.5859 V 12.09 h -5.5859 z M 308.32033,12.09 V 40 h 33.496 v -8.3789 h -5.5859 v 2.793 h -22.324 v -16.758 h 22.324 v 2.793 h 5.5859 v -8.3594 h -33.496 z m 44.47262,13.945 v -8.3789 h 16.758 q 2.30469,0 3.94531,1.640625 1.6211,1.640625 1.6211,3.945313 v 2.793 h -22.324 z M 347.20705,12.09 V 40 h 5.5859 v -8.3789 h 22.324 V 40 h 5.5859 V 23.242 q 0,-4.609375 -3.26172,-7.890625 -3.28125,-3.261719 -7.89062,-3.261719 h -22.344 z m 38.88672,16.738 h 22.344 q 1.15234,0 1.97265,0.820312 0.82032,0.820313 0.82031,1.9727 0,1.152388 -0.82031,1.972701 -0.8203,0.820312 -1.9727,0.82031 h -22.344 v 5.5859 h 22.344 q 3.45704,0 5.91797,-2.460938 2.44141,-2.460937 2.44141,-5.917969 0,-3.457031 -2.4414,-5.918 -2.46094,-2.460937 -5.91797,-2.460937 h -16.758 v -5.5859 h 25.117 v -5.5664 h -30.703 v 16.738 z m 41.71875,-8.398 q 0.0195,-1.152344 0.83984,-1.953125 0.80078,-0.820313 1.95313,-0.820313 h 14.023 q 1.15234,0 1.97265,0.820313 0.82032,0.820312 0.82031,1.9727 v 2.793 h -16.816 q -1.17187,0 -1.99218,-0.820313 -0.82032,-0.839843 -0.80078,-1.992187 z m 2.7932,-8.34 q -3.41797,0 -5.87891,2.421875 -2.46094,2.421875 -2.5,5.8398 -0.0391,3.496094 2.42188,5.996094 2.46093,2.480468 5.95703,2.480468 h 16.816 v 11.172 h 5.5859 v -19.551 q 0,-3.457031 -2.46094,-5.917968 -2.44141,-2.441407 -5.91797,-2.441407 h -14.023 z"
         id="path3" />
    </g>
  </g>
</svg>
